<svg width="15" height="15" viewBox="0 0 15 15" fill="none" xmlns="http://www.w3.org/2000/svg">
<path d="M6.18652 0.00390625C7.42961 0.00388784 8.43164 0.0044262 9.21973 0.110352C10.0381 0.220364 10.7272 0.455745 11.2744 1.00293C11.763 1.49147 12.0019 2.09314 12.126 2.79883C12.8641 2.92022 13.4911 3.15915 13.9971 3.66504C14.5468 4.21481 14.7829 4.90741 14.8936 5.73047C15.0002 6.5234 15.001 7.53174 15.001 8.7832V8.88281C15.001 10.1343 15.0002 11.1426 14.8936 11.9355C14.7829 12.7586 14.5468 13.4512 13.9971 14.001C13.4473 14.5508 12.7547 14.7868 11.9316 14.8975C11.1387 15.0041 10.1304 15.0049 8.87891 15.0049H8.7793C7.52785 15.0049 6.51949 15.0041 5.72656 14.8975C4.9035 14.7868 4.2109 14.5508 3.66113 14.001C3.15546 13.4953 2.91636 12.8685 2.79492 12.1309C2.08902 12.0068 1.4867 11.768 0.998047 11.2793C0.450889 10.7321 0.215488 10.0429 0.105469 9.22461C-0.000503452 8.43646 -1.84099e-05 7.43371 0 6.19043V6.09082C-1.84059e-05 4.84775 -0.000457166 3.84571 0.105469 3.05762C0.215467 2.23943 0.451016 1.5501 0.998047 1.00293C1.5452 0.455773 2.23455 0.220385 3.05273 0.110352C3.84092 0.00437936 4.84359 0.00388784 6.08691 0.00390625H6.18652ZM12.251 4.21582C12.2699 4.76768 12.2734 5.39099 12.2734 6.09082V6.19043C12.2734 7.43371 12.273 8.43646 12.167 9.22461C12.057 10.0429 11.8216 10.7322 11.2744 11.2793C10.7273 11.8264 10.0379 12.0619 9.21973 12.1719C8.43165 12.2778 7.42958 12.2773 6.18652 12.2773H6.08691C5.38761 12.2773 4.76445 12.2747 4.21289 12.2559C4.30889 12.6204 4.4443 12.8545 4.62598 13.0361C4.88014 13.2903 5.23639 13.4556 5.9082 13.5459C6.59969 13.6389 7.51593 13.6406 8.8291 13.6406C10.1423 13.6406 11.0585 13.6389 11.75 13.5459C12.4218 13.4556 12.7781 13.2903 13.0322 13.0361C13.2864 12.782 13.4517 12.4257 13.542 11.7539C13.635 11.0624 13.6367 10.1462 13.6367 8.83301C13.6367 7.51985 13.635 6.60359 13.542 5.91211C13.4517 5.24031 13.2864 4.88404 13.0322 4.62988C12.8504 4.44801 12.6162 4.31183 12.251 4.21582ZM6.13672 1.36816C4.83174 1.36816 3.92109 1.36959 3.23438 1.46191C2.56771 1.55159 2.21445 1.71535 1.96289 1.9668C1.71127 2.21841 1.54672 2.57216 1.45703 3.23926C1.36475 3.9259 1.36328 4.83594 1.36328 6.14062C1.36328 6.20462 1.36326 6.26796 1.36328 6.33008C1.56146 6.31926 1.76019 6.31315 1.95898 6.31348C3.87082 6.27941 5.74574 6.7974 7.25 7.78906C8.38393 8.53666 9.25729 9.52256 9.77832 10.6465C10.0076 10.5595 10.1744 10.4506 10.3105 10.3145C10.562 10.0629 10.7257 9.70971 10.8154 9.04297C10.9078 8.35628 10.9092 7.44561 10.9092 6.14062C10.9092 4.83588 10.9077 3.92591 10.8154 3.23926C10.7257 2.57216 10.5621 2.21841 10.3105 1.9668C10.0589 1.71521 9.70515 1.5516 9.03809 1.46191C8.35145 1.36963 7.44146 1.36816 6.13672 1.36816ZM8.34863 3.07227C8.81392 3.07228 9.20508 3.45425 9.20508 3.9248C9.20503 4.39532 8.81389 4.77733 8.34863 4.77734C7.88003 4.77734 7.50005 4.39549 7.5 3.9248C7.5 3.45408 7.88 3.07227 8.34863 3.07227Z" fill="url(#paint0_linear_9655_11063)"/>
<defs>
<linearGradient id="paint0_linear_9655_11063" x1="0" y1="7.5044" x2="14.9999" y2="7.5044" gradientUnits="userSpaceOnUse">
<stop stop-color="#B46A11"/>
<stop offset="0.32" stop-color="#D68D15"/>
<stop offset="0.68" stop-color="#E7AC18"/>
<stop offset="1" stop-color="#F8C73D"/>
</linearGradient>
</defs>
</svg>
