<svg width="16" height="17" viewBox="0 0 16 17" fill="none" xmlns="http://www.w3.org/2000/svg">
<path d="M2.52051 10.9727C2.93472 10.9727 3.27051 11.3084 3.27051 11.7227C3.27051 12.2864 3.7282 12.7432 4.29199 12.7432C4.70595 12.7433 5.04182 13.0792 5.04199 13.4932C5.04199 13.9073 4.70606 14.243 4.29199 14.2432C3.76338 14.2432 3.32856 14.6453 3.27637 15.1602L3.27051 15.2646L3.2666 15.3408C3.22826 15.7191 2.90888 16.0146 2.52051 16.0146C2.10655 16.0145 1.77068 15.6786 1.77051 15.2646C1.77051 14.7009 1.31379 14.2432 0.75 14.2432C0.335786 14.2432 0 13.9074 0 13.4932C0.000175923 13.0791 0.335895 12.7432 0.75 12.7432C1.31379 12.7432 1.77051 12.2864 1.77051 11.7227C1.77051 11.3086 2.10644 10.9728 2.52051 10.9727ZM7.83203 1.05566C8.24624 1.05566 8.58203 1.39145 8.58203 1.80566C8.58203 3.15549 9.26444 4.56815 10.3545 5.6582C11.4445 6.74826 12.8572 7.43066 14.207 7.43066C14.6212 7.43066 14.957 7.76645 14.957 8.18066C14.957 8.59488 14.6212 8.93066 14.207 8.93066C12.8572 8.93066 11.4445 9.61307 10.3545 10.7031C9.33261 11.725 8.66886 13.0304 8.58984 14.3018L8.58203 14.5557L8.57812 14.6328C8.5395 15.0108 8.2202 15.3057 7.83203 15.3057C7.41782 15.3057 7.08203 14.9699 7.08203 14.5557C7.08203 13.2058 6.39962 11.7932 5.30957 10.7031C4.21952 9.61307 2.80686 8.93066 1.45703 8.93066C1.04282 8.93066 0.707031 8.59488 0.707031 8.18066C0.707031 7.7925 1.00191 7.47319 1.37988 7.43457L1.45703 7.43066L1.71094 7.42285C2.98229 7.34383 4.28769 6.68008 5.30957 5.6582C6.39962 4.56815 7.08203 3.15549 7.08203 1.80566C7.08203 1.39145 7.41782 1.05566 7.83203 1.05566ZM7.83203 4.72754C7.45293 5.46122 6.95116 6.13771 6.37012 6.71875C5.78908 7.29979 5.11259 7.80157 4.37891 8.18066C5.11259 8.55976 5.78908 9.06154 6.37012 9.64258C6.95095 10.2234 7.45298 10.8994 7.83203 11.6328C8.21108 10.8994 8.71311 10.2234 9.29395 9.64258C9.87478 9.06174 10.5508 8.55971 11.2842 8.18066C10.5508 7.80161 9.87478 7.29958 9.29395 6.71875C8.71291 6.13771 8.21113 5.46122 7.83203 4.72754ZM12.7891 0.347656C13.2033 0.347656 13.5391 0.683443 13.5391 1.09766C13.5391 1.85705 14.1546 2.47266 14.9141 2.47266C15.3283 2.47266 15.6641 2.80844 15.6641 3.22266C15.6641 3.63687 15.3283 3.97266 14.9141 3.97266C14.2021 3.97266 13.6163 4.51368 13.5459 5.20703L13.5391 5.34766L13.5352 5.4248C13.4965 5.80277 13.1772 6.09766 12.7891 6.09766C12.3748 6.09766 12.0391 5.76187 12.0391 5.34766C12.0391 4.58826 11.4235 3.97266 10.6641 3.97266C10.2498 3.97266 9.91406 3.63687 9.91406 3.22266C9.91406 2.83449 10.2089 2.51518 10.5869 2.47656L10.6641 2.47266L10.8047 2.46582C11.4981 2.3954 12.0391 1.80959 12.0391 1.09766C12.0391 0.683443 12.3748 0.347656 12.7891 0.347656ZM12.5957 3.22266C12.6631 3.28393 12.7278 3.34769 12.7891 3.41504C12.8502 3.34787 12.9143 3.28378 12.9814 3.22266C12.9141 3.16137 12.8503 3.09666 12.7891 3.0293C12.7276 3.09684 12.6632 3.16122 12.5957 3.22266Z" fill="url(#paint0_linear_9655_11084)"/>
<defs>
<linearGradient id="paint0_linear_9655_11084" x1="0" y1="8.18115" x2="15.6629" y2="8.18115" gradientUnits="userSpaceOnUse">
<stop stop-color="#B46A11"/>
<stop offset="0.32" stop-color="#D68D15"/>
<stop offset="0.68" stop-color="#E7AC18"/>
<stop offset="1" stop-color="#F8C73D"/>
</linearGradient>
</defs>
</svg>
