<svg width="17" height="18" viewBox="0 0 17 18" fill="none" xmlns="http://www.w3.org/2000/svg">
<g clip-path="url(#clip0_9655_11073)">
<path d="M8.32227 0.339844C8.57242 0.339961 8.80772 0.46147 8.95312 0.665039L10.6895 3.0957L13.0811 3.7793C13.3327 3.8514 13.5312 4.04569 13.6084 4.2959C13.6855 4.54627 13.6305 4.8192 13.4629 5.02051L11.7842 7.03418L12.1221 9.73145C12.1555 10.0004 12.0457 10.2676 11.833 10.4355C11.6202 10.6035 11.3349 10.6477 11.0811 10.5527L9.07031 9.79785V12.4863H10.5918C11.4242 12.4865 12.0996 13.1617 12.0996 13.9941V15.5166H12.8682C13.2821 15.5169 13.6182 15.8526 13.6182 16.2666C13.6182 16.6806 13.2821 17.0163 12.8682 17.0166H3.77734C3.36313 17.0166 3.02734 16.6808 3.02734 16.2666C3.02734 15.8524 3.36313 15.5166 3.77734 15.5166H4.53906V13.9941C4.53906 13.1615 5.21429 12.4863 6.04688 12.4863H7.57031V9.7998L5.56445 10.5527C5.31063 10.6479 5.02537 10.6033 4.8125 10.4355C4.59968 10.2676 4.48997 10.0005 4.52344 9.73145L4.86035 7.03418L3.18164 5.02051C3.0139 4.81917 2.95995 4.54634 3.03711 4.2959C3.11435 4.0456 3.31258 3.85128 3.56445 3.7793L5.95508 3.0957L7.69238 0.665039L7.75098 0.592773C7.89672 0.433372 8.10347 0.339958 8.32227 0.339844ZM6.04102 13.9883L6.03906 13.9912V15.5166H10.5996V13.9912C10.5995 13.9909 10.5987 13.9894 10.5977 13.9883C10.5967 13.9873 10.5953 13.9866 10.5947 13.9863H6.04395C6.0436 13.9865 6.04219 13.9872 6.04102 13.9883ZM7.05957 4.2168C6.95774 4.35936 6.81003 4.46351 6.6416 4.51172L5.13379 4.94238L6.2666 6.30078C6.40377 6.46549 6.46688 6.67988 6.44043 6.89258L6.21973 8.65137L8.05078 7.96484L8.18457 7.92773C8.32112 7.90309 8.4632 7.91555 8.59473 7.96484L10.4248 8.65137L10.2051 6.89258C10.1786 6.67977 10.2416 6.46553 10.3789 6.30078L11.5107 4.94238L10.0039 4.51172C9.8354 4.46357 9.68783 4.35937 9.58594 4.2168L8.32227 2.44727L7.05957 4.2168Z" fill="url(#paint0_linear_9655_11073)"/>
</g>
<defs>
<linearGradient id="paint0_linear_9655_11073" x1="3.00195" y1="8.67822" x2="13.6412" y2="8.67822" gradientUnits="userSpaceOnUse">
<stop stop-color="#B46A11"/>
<stop offset="0.32" stop-color="#D68D15"/>
<stop offset="0.68" stop-color="#E7AC18"/>
<stop offset="1" stop-color="#F8C73D"/>
</linearGradient>
<clipPath id="clip0_9655_11073">
<rect width="17" height="17" fill="white" transform="translate(0 0.339844)"/>
</clipPath>
</defs>
</svg>
