<svg width="19" height="15" viewBox="0 0 19 15" fill="none" xmlns="http://www.w3.org/2000/svg">
<path d="M12.9775 0.125C14.9924 0.125191 16.626 1.75848 16.626 3.77344C16.626 4.89432 16.1196 5.89619 15.3242 6.56543C17.0817 7.35628 18.3251 9.00982 18.3252 10.9854C18.3252 11.3601 18.0212 11.6647 17.6465 11.665C17.2715 11.665 16.9668 11.3603 16.9668 10.9854C16.9666 9.07688 15.2439 7.42198 12.9795 7.42188L12.9785 7.4209L12.9775 7.42188C12.8664 7.42188 12.7563 7.41501 12.6475 7.40527C12.4376 8.07931 12.0373 8.66879 11.5098 9.1123C13.2654 9.90374 14.5067 11.5569 14.5068 13.5312C14.5068 13.9062 14.203 14.2108 13.8281 14.2109C13.4532 14.2109 13.1494 13.9062 13.1494 13.5312C13.1492 11.6229 11.4263 9.9681 9.16211 9.96777C6.89765 9.96777 5.17403 11.6227 5.17383 13.5312C5.17383 13.9062 4.86999 14.2108 4.49512 14.2109C4.12014 14.2109 3.81641 13.9062 3.81641 13.5312C3.81655 11.5562 5.05865 9.90241 6.81543 9.11133C6.28863 8.66777 5.88921 8.07795 5.67969 7.4043C5.56985 7.41434 5.45891 7.4208 5.34668 7.4209L5.3457 7.42188C3.08124 7.42188 1.35762 9.07682 1.35742 10.9854C1.35742 11.3603 1.05359 11.6649 0.678711 11.665C0.303739 11.665 0 11.3603 0 10.9854C0.000140686 9.01105 1.24134 7.35784 2.99707 6.56641C2.20129 5.89716 1.69531 4.89468 1.69531 3.77344C1.69534 1.75836 3.32869 0.125 5.34375 0.125C6.98014 0.125142 8.36333 1.20241 8.82617 2.68652C8.93737 2.67632 9.0502 2.6709 9.16406 2.6709C9.27532 2.67091 9.38542 2.67579 9.49414 2.68555C9.95723 1.20172 11.3413 0.125 12.9775 0.125ZM9.16406 4.02832C7.89901 4.02832 6.87307 5.05414 6.87305 6.31934C6.87305 7.58455 7.89899 8.61035 9.16406 8.61035C10.3398 8.61019 11.3076 7.72388 11.4385 6.58301C11.4395 6.56185 11.4412 6.54079 11.4443 6.51953C11.4501 6.45351 11.4551 6.38684 11.4551 6.31934C11.4551 5.05425 10.429 4.0285 9.16406 4.02832ZM5.34375 1.48242C4.07869 1.48242 3.05276 2.50824 3.05273 3.77344C3.05273 5.03865 4.07868 6.06445 5.34375 6.06445C5.40501 6.06444 5.46549 6.0604 5.52539 6.05566C5.61903 4.74469 6.40462 3.62533 7.51953 3.06152C7.22001 2.1455 6.3597 1.48256 5.34375 1.48242ZM12.9775 1.48242C11.9625 1.48242 11.1021 2.14392 10.8018 3.05859C11.9202 3.6215 12.7072 4.74286 12.8008 6.05664C12.859 6.06111 12.918 6.06445 12.9775 6.06445C14.2424 6.06426 15.2676 5.03854 15.2676 3.77344C15.2676 2.50836 14.2424 1.48261 12.9775 1.48242Z" fill="url(#paint0_linear_9655_11051)"/>
<defs>
<linearGradient id="paint0_linear_9655_11051" x1="0" y1="7.16797" x2="18.3239" y2="7.16797" gradientUnits="userSpaceOnUse">
<stop stop-color="#B46A11"/>
<stop offset="0.32" stop-color="#D68D15"/>
<stop offset="0.68" stop-color="#E7AC18"/>
<stop offset="1" stop-color="#F8C73D"/>
</linearGradient>
</defs>
</svg>
