<svg width="23" height="23" viewBox="0 0 23 23" fill="none" xmlns="http://www.w3.org/2000/svg">
<path fill-rule="evenodd" clip-rule="evenodd" d="M11.2721 1.41406C5.82983 1.41406 1.41797 5.82592 1.41797 11.2682C1.41797 12.8391 1.82108 14.1981 2.46996 15.456C2.63861 15.7829 2.67839 16.1326 2.58764 16.4351L1.93614 18.6068C1.56904 19.8304 2.70994 20.9713 3.9336 20.6042L6.1053 19.9527C6.40778 19.862 6.75743 19.9018 7.08437 20.0704C8.34229 20.7192 9.70124 21.1224 11.2721 21.1224C16.7145 21.1224 21.1263 16.7106 21.1263 11.2682C21.1263 5.82592 16.7145 1.41406 11.2721 1.41406ZM7.60547 10.3516C7.09921 10.3516 6.6888 10.762 6.6888 11.2682C6.6888 11.7745 7.09921 12.1849 7.60547 12.1849H7.61369C8.11995 12.1849 8.53036 11.7745 8.53036 11.2682C8.53036 10.762 8.11995 10.3516 7.61369 10.3516H7.60547ZM11.268 10.3516C10.7617 10.3516 10.3513 10.762 10.3513 11.2682C10.3513 11.7745 10.7617 12.1849 11.268 12.1849H11.2763C11.7825 12.1849 12.1929 11.7745 12.1929 11.2682C12.1929 10.762 11.7825 10.3516 11.2763 10.3516H11.268ZM14.9306 10.3516C14.4243 10.3516 14.0139 10.762 14.0139 11.2682C14.0139 11.7745 14.4243 12.1849 14.9306 12.1849H14.9388C15.4451 12.1849 15.8555 11.7745 15.8555 11.2682C15.8555 10.762 15.4451 10.3516 14.9388 10.3516H14.9306Z" fill="currentColor"/>
</svg>
