<svg width="28" height="13" viewBox="0 0 28 13" fill="none" xmlns="http://www.w3.org/2000/svg">
<path d="M27.0185 12.1079C26.7961 12.4548 26.4739 12.7211 26.0974 12.8693C25.7208 13.0176 25.3087 13.0403 24.9189 12.9344L21.1059 11.9229C20.4507 11.7494 19.8851 11.3229 19.5256 10.7314C19.1662 10.1399 19.0404 9.42858 19.1743 8.74416L19.5228 6.96983C15.9718 5.62398 12.0736 5.6209 8.52065 6.96115L8.85939 8.74994C8.99092 9.43485 8.86288 10.1458 8.50167 10.7361C8.14045 11.3264 7.57358 11.7512 6.91792 11.9229L3.08256 12.9242C2.69606 13.026 2.28853 13.0021 1.9157 12.8557C1.54288 12.7093 1.22296 12.4476 0.999707 12.1064C0.0913167 10.6307 -0.214238 8.84378 0.149817 7.1362C0.513871 5.42862 1.51793 3.93921 2.94258 2.99347C6.3157 1.02795 10.1241 -0.00328358 13.9975 7.85441e-06C17.871 0.00329929 21.6777 1.041 25.0477 3.01225C26.4708 3.9545 27.4762 5.43849 27.8453 7.14167C28.2143 8.84486 27.9172 10.6296 27.0185 12.1079Z" fill="white"/>
</svg>
