<svg width="24" height="25" viewBox="0 0 24 25" fill="none" xmlns="http://www.w3.org/2000/svg">
<path d="M12 24.5C18.6274 24.5 24 19.1274 24 12.5C24 5.87258 18.6274 0.5 12 0.5C5.37258 0.5 0 5.87258 0 12.5C0 19.1274 5.37258 24.5 12 24.5Z" fill="#FD525A"/>
<path d="M11.9339 22.7349C17.6219 22.7349 22.2329 18.1238 22.2329 12.4358C22.2329 6.74778 17.6219 2.13672 11.9339 2.13672C6.24583 2.13672 1.63477 6.74778 1.63477 12.4358C1.63477 18.1238 6.24583 22.7349 11.9339 22.7349Z" fill="#222327"/>
<path fill-rule="evenodd" clip-rule="evenodd" d="M9.0944 8.1753C9.14728 8.0253 9.1997 7.8766 9.21884 7.81122C9.17441 7.75519 7.51526 8.89175 7.02347 9.31032C5.88387 10.2808 5.20375 11.5047 5.13962 13.0492C5.05834 15.0063 6.00404 16.3953 7.46275 17.5551C8.45883 18.3469 9.44247 19.1544 10.4262 19.962C10.9131 20.3617 11.3999 20.7614 11.8883 21.1592C11.8984 21.1673 11.9585 21.2087 11.9686 21.2087C11.9801 21.2083 12.0111 21.1776 12.0244 21.1645C12.0268 21.162 12.0287 21.1601 12.0297 21.1592C13.4349 19.8889 14.8982 18.6962 16.4215 17.5864C19.3369 15.4627 19.2313 12.3403 18.1599 10.0455C17.3273 8.26212 15.8575 7.09475 14.1757 6.15965C14.1001 6.1177 14.0246 6.07594 13.949 6.03416C13.51 5.7918 13.0702 5.54883 12.6588 5.26543C12.3771 5.07105 12.1857 4.83373 12.0954 4.55654C12.0151 4.30913 11.9873 3.71181 12.1443 3.35938C11.1173 3.96225 10.6018 5.08064 10.831 6.35606C10.915 6.82292 11.0569 7.2789 11.199 7.73533C11.2861 8.01491 11.3732 8.29467 11.447 8.57719C11.5965 9.15027 11.5041 9.67083 10.981 10.0364C10.5473 10.3388 9.79395 10.3328 9.36881 10.0233C8.84622 9.64306 8.80077 9.12553 8.96538 8.55345C8.98486 8.48604 9.03988 8.32999 9.0944 8.1753ZM11.2151 18.2763C11.4826 18.4704 11.7491 18.6638 12.0132 18.8576C12.2801 18.6619 12.5497 18.4675 12.82 18.2726C13.4722 17.8025 14.1285 17.3293 14.7614 16.8263C15.282 16.4123 15.796 15.9539 16.1893 15.4243C16.6943 14.744 16.7312 13.9382 16.3207 13.1808C15.9157 12.4326 15.2179 12.0443 14.3964 12.165C13.7334 12.2624 13.0675 12.5209 12.4742 12.84C12.0975 13.0426 11.89 13.0532 11.5431 12.8234C11.1554 12.5664 10.7075 12.371 10.2591 12.2387C9.27757 11.9484 8.27632 12.2947 7.77697 13.0355C7.27305 13.7832 7.31295 14.8506 7.9658 15.6302C8.35408 16.0942 8.83325 16.4932 9.31443 16.8662C9.93942 17.3509 10.5799 17.8155 11.2151 18.2763Z" fill="#FD525A"/>
</svg>
