<svg width="24" height="25" viewBox="0 0 24 25" fill="none" xmlns="http://www.w3.org/2000/svg">
<path fill-rule="evenodd" clip-rule="evenodd" d="M10.7948 2.18875L9.75 1.75V2.86621C9.75 4.93116 8.40595 6.46948 6.93056 8.15804C5.42224 9.88669 3.75 11.9091 3.75 15.1456C3.75 19.6216 7.44365 23.25 12 23.25C16.5563 23.25 20.25 19.6216 20.25 15.1456C20.25 14.0846 20.2373 11.9245 18.0857 9.28241L16.8211 7.7296L16.7505 9.71537C16.7505 10 16.615 10.5616 16.5096 10.8138C16.4015 11.0726 16.2727 11.2473 16.1409 11.3418C16.0375 11.416 15.8806 11.4811 15.5797 11.4193C15.3223 11.3664 15.1924 11.2733 15.1092 11.1772C15.0146 11.0679 14.9287 10.8938 14.8662 10.6064C14.8033 10.3174 14.7746 9.9659 14.7576 9.53738C14.7514 9.38252 14.7467 9.20801 14.7416 9.02435C14.7339 8.73913 14.7255 8.43179 14.7104 8.14174C14.6586 7.14752 14.519 5.99949 13.9583 4.92443C13.3854 3.8258 12.4064 2.86553 10.7948 2.18875ZM12.6702 13.873C12.1204 13.2807 11.5 12 11.5 10.5C10.539 10.8562 9.03473 12.0572 8.55532 12.8767C8.07287 13.7015 7.75 14.6611 7.75 15.3978C7.75 16.756 8.19426 17.9088 8.97275 18.7299C9.7526 19.5524 10.8302 20 12 20C14.5117 20 16.25 17.5427 16.25 14.9146V13.8663L15.2367 14.2344C14.5388 14.4879 14.0163 14.51 13.6285 14.4289C13.2453 14.3488 12.9324 14.1554 12.6702 13.873Z" fill="currentColor"/>
</svg>
