<svg width="15" height="21" viewBox="0 0 15 21" fill="none" xmlns="http://www.w3.org/2000/svg">
<path d="M14.097 10.8545C14.097 10.4452 13.7651 10.1133 13.3557 10.1133C12.9463 10.1133 12.6145 10.4452 12.6145 10.8545C12.614 13.7516 10.2651 16.0998 7.36801 16.0994C4.47154 16.099 2.12358 13.751 2.12315 10.8545C2.12315 10.4452 1.79127 10.1133 1.38189 10.1133C0.972504 10.1133 0.640625 10.4452 0.640625 10.8545C0.644534 14.2819 3.22148 17.1598 6.62757 17.5407V19.5174H3.93186C3.52247 19.5174 3.1906 19.8493 3.1906 20.2587C3.1906 20.6681 3.52247 20.9999 3.93186 20.9999H10.8058C11.2152 20.9999 11.5471 20.6681 11.5471 20.2587C11.5471 19.8493 11.2152 19.5174 10.8058 19.5174H8.11009V17.5407C11.5161 17.1598 14.0931 14.2819 14.097 10.8545Z" fill="white"/>
<path d="M7.36817 0C5.08517 0 3.23438 1.85074 3.23438 4.13379V10.8274C3.23708 13.1093 5.08628 14.9584 7.36817 14.9612C9.65006 14.9585 11.4992 13.1093 11.502 10.8274V4.13379C11.502 1.85074 9.65121 0 7.36817 0Z" fill="white"/>
</svg>
