<svg width="12" height="11" viewBox="0 0 12 11" fill="none" xmlns="http://www.w3.org/2000/svg">
<path d="M5.06876 0.913128C5.34751 0.0552164 6.56123 0.0552166 6.83998 0.913128L7.41782 2.69154C7.54248 3.0752 7.90002 3.33497 8.30343 3.33497H10.1734C11.0754 3.33497 11.4505 4.48928 10.7207 5.0195L9.20789 6.11862C8.88152 6.35574 8.74496 6.77604 8.86962 7.15971L9.44746 8.93812C9.72621 9.79603 8.74429 10.5094 8.01451 9.97922L6.50171 8.8801C6.17534 8.64298 5.7334 8.64298 5.40703 8.8801L3.89423 9.97922C3.16445 10.5094 2.18253 9.79603 2.46128 8.93812L3.03912 7.15971C3.16378 6.77604 3.02722 6.35574 2.70085 6.11862L1.18804 5.0195C0.458261 4.48928 0.83332 3.33497 1.73538 3.33497H3.60531C4.00872 3.33497 4.36626 3.07521 4.49092 2.69154L5.06876 0.913128Z" fill="#FC5E43"/>
</svg>
