<svg xmlns="http://www.w3.org/2000/svg" width="14" height="18" fill="none"><path fill="#F0DBFA" fill-rule="evenodd" d="M6.749.456a.6.6 0 0 1 .64.088c2.156 1.84 3.799 3.575 4.907 5.209C13.402 7.383 14 8.95 14 10.44c0 4.334-3.327 7.16-7 7.16s-7-2.826-7-7.16C0 8.2 1.33 5.964 3.764 3.388a.6.6 0 0 1 1.03.325c.03.202.149.625.617 1.206.206-.239.386-.5.538-.855C6.205 3.466 6.4 2.556 6.4 1a.6.6 0 0 1 .349-.544Zm2.817 8.379a.8.8 0 0 1 0 1.131l-4 4a.8.8 0 0 1-1.132-1.131l4-4a.8.8 0 0 1 1.132 0ZM5.4 9a.8.8 0 1 0 0 1.6h.006a.8.8 0 0 0 0-1.6H5.4Zm3.194 3.2a.8.8 0 1 0 0 1.6H8.6a.8.8 0 0 0 0-1.6h-.006Z" clip-rule="evenodd"/></svg>