<svg width="24" height="24" viewBox="0 0 24 24" fill="none" xmlns="http://www.w3.org/2000/svg">
<path d="M20.2481 6.64431L19.3106 6.99573C18.2517 7.39262 17.09 8.21873 15.9141 9.31024C14.7493 10.3914 13.6267 11.6795 12.642 12.9288C11.6592 14.1757 10.8257 15.3683 10.2378 16.2499C9.9441 16.6902 9.4756 17.4343 9.31813 17.6845L8.3784 19.25L7.56825 17.6131C6.89092 16.2446 6.12179 15.4851 5.562 15.0739C5.27971 14.8664 4.93678 14.6669 4.70804 14.6025L3.75 14.3605L4.23507 12.4003L5.20521 12.6453C5.80477 12.7935 6.33314 13.1421 6.73835 13.4398C7.28111 13.8386 7.89731 14.4189 8.49136 15.2529L8.57914 15.1209C9.18781 14.2083 10.0529 12.97 11.0774 11.6702C12.1 10.3728 13.2938 8.9985 14.561 7.82237C15.8169 6.65661 17.2031 5.6306 18.6149 5.10142L19.5524 4.75L20.2481 6.64431Z" fill="white"/>
</svg>
