<svg width="23" height="23" viewBox="0 0 23 23" fill="none" xmlns="http://www.w3.org/2000/svg">
<path d="M10.5794 4.45725C9.62531 4.26224 8.87969 3.51661 8.68468 2.5625H7.89084C7.69583 3.51661 6.95021 4.26224 5.99609 4.45725V5.25108C6.95021 5.4461 7.69583 6.19172 7.89084 7.14583H8.68468C8.87969 6.19172 9.62531 5.4461 10.5794 5.25108V4.45725Z" fill="currentColor"/>
<path d="M17.5816 13.5625L17.694 14.1123C17.9194 15.215 18.7811 16.0767 19.8838 16.3021L20.4336 16.4145V17.5855L19.8838 17.6979C18.7811 17.9233 17.9194 18.785 17.694 19.8877L17.5816 20.4375H16.4106L16.2982 19.8877C16.0728 18.785 15.2111 17.9233 14.1084 17.6979L13.5586 17.5855V16.4145L14.1084 16.3021C15.2111 16.0767 16.0728 15.215 16.2982 14.1123L16.4106 13.5625H17.5816Z" fill="currentColor"/>
<path d="M17.9254 5.06946C17.0255 4.16955 15.5665 4.16955 14.6666 5.06946L13.5098 6.22627L16.7686 9.48513L17.9254 8.32832C18.8253 7.42841 18.8253 5.96937 17.9254 5.06946Z" fill="currentColor"/>
<path d="M15.7963 10.458L12.5374 7.19922L3.23353 16.5031C2.33362 17.403 2.33362 18.862 3.23353 19.7619C4.13344 20.6618 5.59248 20.6618 6.49239 19.7619L15.7963 10.458Z" fill="currentColor"/>
</svg>
