<svg xmlns="http://www.w3.org/2000/svg" width="29" height="41" fill="none"><path fill="url(#a)" fill-rule="evenodd" d="M8.533 10.325c.11-.314.22-.626.26-.763-.094-.117-3.57 2.265-4.6 3.142C1.804 14.738.379 17.303.245 20.54c-.17 4.101 1.811 7.012 4.868 9.443a505.53 505.53 0 0 1 6.21 5.044c1.021.838 2.041 1.675 3.065 2.51a.912.912 0 0 0 .168.103c.025 0 .09-.065.117-.093l.011-.01a112.556 112.556 0 0 1 9.204-7.488c6.11-4.451 5.89-10.995 3.644-15.804-1.745-3.738-4.826-6.184-8.35-8.144l-.475-.263c-.92-.508-1.842-1.017-2.704-1.611-.59-.407-.992-.905-1.181-1.486-.168-.518-.226-1.77.103-2.509-2.153 1.264-3.233 3.608-2.753 6.28.176.98.474 1.935.772 2.891.182.586.364 1.172.52 1.765.313 1.2.119 2.292-.978 3.058-.908.633-2.487.62-3.378-.028-1.095-.797-1.19-1.881-.846-3.08.041-.142.156-.469.27-.793Zm4.444 21.17c.56.406 1.12.812 1.672 1.218.56-.41 1.125-.817 1.691-1.226 1.367-.985 2.743-1.977 4.07-3.031 1.09-.868 2.167-1.828 2.992-2.938 1.058-1.426 1.135-3.115.275-4.702-.849-1.568-2.311-2.382-4.033-2.129-1.39.204-2.785.746-4.028 1.415-.79.424-1.225.446-1.952-.035-.812-.539-1.75-.948-2.69-1.226-2.058-.608-4.156.118-5.203 1.67-1.056 1.567-.972 3.804.396 5.438.814.973 1.818 1.809 2.827 2.59 1.31 1.016 2.652 1.99 3.983 2.956Z" clip-rule="evenodd"/><mask id="b" width="10" height="5" x="10" y="24" maskUnits="userSpaceOnUse" style="mask-type:luminance"><path fill="#fff" fill-rule="evenodd" d="M10.215 24.543a4.567 4.567 0 0 0 8.862 0H17.28a2.853 2.853 0 0 1-5.265 0h-1.8Z" clip-rule="evenodd"/></mask><g mask="url(#b)"><path fill="url(#c)" d="M10.219 24.544v-1.37h-1.75l.42 1.699 1.33-.33Zm8.862 0 1.33.329.42-1.7h-1.75v1.37Zm-1.798 0v-1.37h-.912l-.352.84 1.264.53Zm-5.266 0 1.264-.53-.352-.84h-.912v1.37Zm2.633 2.094a3.197 3.197 0 0 1-3.102-2.424l-2.659.659a5.936 5.936 0 0 0 5.761 4.505v-2.74Zm3.102-2.424a3.197 3.197 0 0 1-3.102 2.424v2.74a5.936 5.936 0 0 0 5.76-4.505l-2.658-.659Zm1.33-1.04h-1.8v2.74h1.8v-2.74Zm-4.432 4.491a4.223 4.223 0 0 0 3.896-2.593l-2.527-1.057a1.484 1.484 0 0 1-1.369.911v2.74Zm-3.896-2.593a4.223 4.223 0 0 0 3.896 2.593v-2.739a1.484 1.484 0 0 1-1.37-.911l-2.526 1.057Zm1.263-1.898H10.22v2.74h1.798v-2.74Z"/></g><defs><linearGradient id="a" x1="-2.517" x2="29.017" y1="11.132" y2="34.253" gradientUnits="userSpaceOnUse"><stop stop-color="#E3439F"/><stop offset=".48" stop-color="#F54D71"/><stop offset="1" stop-color="#FF7A00"/></linearGradient><linearGradient id="c" x1="10.238" x2="19.063" y1="25.957" y2="25.782" gradientUnits="userSpaceOnUse"><stop stop-color="#F85461"/><stop offset="1" stop-color="#FC6638"/></linearGradient></defs></svg>