<svg width="1200" height="1314" viewBox="0 0 1200 1314" fill="none" xmlns="http://www.w3.org/2000/svg">
<g filter="url(#filter0_f_9797_4831)">
<path d="M149.117 187.47C231.472 187.47 298.234 146.846 298.234 96.7348C298.234 46.6234 231.472 6 149.117 6C66.762 6 0 46.6234 0 96.7348C0 146.846 66.762 187.47 149.117 187.47Z" fill="#B99CFF"/>
<path d="M165.008 1454C247.363 1454 314.125 1413.38 314.125 1363.27C314.125 1313.15 247.363 1272.53 165.008 1272.53C82.6526 1272.53 15.8906 1313.15 15.8906 1363.27C15.8906 1413.38 82.6526 1454 165.008 1454Z" fill="#B99CFF"/>
<path d="M930.167 932.64C1079.19 932.64 1200 858.919 1200 767.981C1200 677.042 1079.19 603.322 930.167 603.322C781.143 603.322 660.336 677.042 660.336 767.981C660.336 858.919 781.143 932.64 930.167 932.64Z" fill="#FF0051" fill-opacity="0.15"/>
</g>
<defs>
<filter id="filter0_f_9797_4831" x="-523.793" y="-517.793" width="2247.58" height="2495.59" filterUnits="userSpaceOnUse" color-interpolation-filters="sRGB">
<feFlood flood-opacity="0" result="BackgroundImageFix"/>
<feBlend mode="normal" in="SourceGraphic" in2="BackgroundImageFix" result="shape"/>
<feGaussianBlur stdDeviation="261.897" result="effect1_foregroundBlur_9797_4831"/>
</filter>
</defs>
</svg>
