<svg width="24" height="25" viewBox="0 0 24 25" fill="none" xmlns="http://www.w3.org/2000/svg">
<path fill-rule="evenodd" clip-rule="evenodd" d="M14.5 1.75C13.4948 1.75 12.5961 2.20641 12 2.92329C11.4038 2.20645 10.5052 1.75009 9.5 1.75009C7.94152 1.75009 6.63925 2.84707 6.3232 4.311C4.57518 4.62962 3.25 6.1601 3.25 8.00009C3.25 8.3827 3.30751 8.75255 3.41442 9.10105C2.13588 9.69843 1.25 10.9953 1.25 12.5001C1.25 14.005 2.13589 15.3018 3.41442 15.8992C3.30751 16.2477 3.25 16.6175 3.25 17.0001C3.25 18.8401 4.57518 20.3706 6.3232 20.6892C6.63925 22.1532 7.94152 23.2501 9.5 23.2501C10.5052 23.2501 11.4039 22.7938 12 22.0769C12.5962 22.7937 13.4948 23.25 14.5 23.25C16.0585 23.25 17.3607 22.1531 17.6768 20.6891C19.4248 20.3705 20.75 18.8401 20.75 17C20.75 16.6174 20.6925 16.2476 20.5856 15.8991C21.8641 15.3017 22.75 14.0049 22.75 12.5C22.75 10.9952 21.8641 9.69833 20.5856 9.10095C20.6925 8.75245 20.75 8.3826 20.75 8C20.75 6.16001 19.4249 4.62953 17.6768 4.31091C17.3608 2.84697 16.0585 1.75 14.5 1.75ZM10.2224 8.75004C9.90868 8.75004 9.62808 8.94534 9.51911 9.23956L7.29689 15.2396C7.15303 15.628 7.35129 16.0595 7.73972 16.2034C8.12815 16.3473 8.55965 16.149 8.70352 15.7606L9.4111 13.8501H11.5893L12.2969 15.7606C12.4408 16.149 12.8723 16.3473 13.2607 16.2034C13.6491 16.0595 13.8474 15.628 13.7035 15.2396L11.4813 9.23956C11.3723 8.94534 11.0917 8.75004 10.778 8.75004H10.2224ZM11.0337 12.3501H9.96666L10.5002 10.9095L11.0337 12.3501ZM16.2502 9.50004C16.2502 9.08583 15.9144 8.75004 15.5002 8.75004C15.086 8.75004 14.7502 9.08583 14.7502 9.50004V15.5001C14.7502 15.9143 15.086 16.2501 15.5002 16.2501C15.9144 16.2501 16.2502 15.9143 16.2502 15.5001V9.50004Z" fill="currentColor"/>
</svg>
