<svg width="21" height="22" viewBox="0 0 21 22" fill="none" xmlns="http://www.w3.org/2000/svg">
<path d="M2.1499 2.46875L2.93774 2.47473C3.18335 2.48093 3.41038 2.4935 3.61364 2.52002C4.04523 2.57636 4.48785 2.70666 4.86206 3.05493C5.23632 3.40342 5.39801 3.83574 5.48498 4.26232C5.53473 4.50637 5.56541 4.78697 5.59179 5.09375H13.6223L14.0598 5.53125L13.2643 6.32678C12.4956 7.09564 12.4955 8.34192 13.2643 9.11072C14.033 9.87947 15.2794 9.87939 16.0483 9.11072L16.8437 8.31518L17.6393 9.11072C18.2512 9.72259 19.1649 9.84544 19.9003 9.48327C19.8876 10.5033 19.8402 11.2169 19.6516 11.8391C19.079 13.7268 17.6017 15.204 15.7141 15.7766C14.8522 16.038 13.809 16.0312 12.015 16.0312C10.3063 16.0312 9.31137 16.0378 8.474 15.792C6.6885 15.2675 5.2542 13.9322 4.604 12.1886C4.32439 11.4385 4.21947 10.3737 4.11523 8.92273L3.89477 5.84399C3.85179 5.24229 3.82385 4.87587 3.77002 4.61182C3.72129 4.37287 3.67384 4.33932 3.67004 4.33582C3.66635 4.33239 3.62949 4.28712 3.3872 4.25549C3.25356 4.23806 3.09488 4.22867 2.89417 4.22388L2.1499 4.21875H1.96875C1.4855 4.21875 1.09375 3.82699 1.09375 3.34375C1.09375 2.8605 1.4855 2.46875 1.96875 2.46875H2.1499Z" fill="#FD525A"/>
<path d="M7.21875 18.2188C7.21875 17.4939 7.80637 16.9062 8.53125 16.9062C9.25615 16.9062 9.84371 17.4939 9.84371 18.2188C9.84371 18.9436 9.25615 19.5312 8.53125 19.5312C7.80637 19.5312 7.21875 18.9436 7.21875 18.2188Z" fill="#FD525A"/>
<path d="M14.6562 18.2188C14.6562 17.4939 15.2439 16.9062 15.9688 16.9062C16.6937 16.9062 17.2812 17.4939 17.2812 18.2188C17.2812 18.9436 16.6937 19.5312 15.9688 19.5312C15.2439 19.5312 14.6562 18.9436 14.6562 18.2188Z" fill="#FD525A"/>
<path d="M18.4125 2.72503C18.7542 2.38332 19.3081 2.38332 19.6498 2.72503C19.9915 3.06674 19.9915 3.62063 19.6498 3.96234L18.081 5.53118L19.6498 7.10003C19.9915 7.44174 19.9915 7.99563 19.6498 8.33734C19.3081 8.67904 18.7542 8.67904 18.4125 8.33734L16.8436 6.76849L15.2748 8.33734C14.9331 8.67904 14.3792 8.67904 14.0375 8.33734C13.6958 7.99563 13.6958 7.44174 14.0375 7.10003L15.6063 5.53118L14.0375 3.96234C13.6958 3.62063 13.6958 3.06674 14.0375 2.72503C14.3792 2.38332 14.9331 2.38332 15.2748 2.72503L16.8436 4.29388L18.4125 2.72503Z" fill="#FD525A"/>
</svg>
