<svg width="22" height="22" viewBox="0 0 22 22" fill="none" xmlns="http://www.w3.org/2000/svg">
<path d="M17.4465 12.6313C18.0955 11.9823 19.1477 11.9823 19.7967 12.6313L20.3674 13.202C21.0164 13.851 21.0164 14.9032 20.3674 15.5521L17.2978 18.6219C16.7937 19.1259 16.1517 19.4694 15.4528 19.6092L13.8848 19.9228C13.6594 19.9679 13.4264 19.8973 13.2639 19.7348C13.1014 19.5723 13.0308 19.3393 13.0759 19.1139L13.3895 17.5459C13.5293 16.8469 13.8728 16.205 14.3768 15.701L17.4465 12.6313Z" fill="currentColor"/>
<path d="M10.3112 3.66041C8.70994 2.6213 6.82517 2.05993 4.88729 2.06251C4.70596 2.06252 4.52567 2.06642 4.34661 2.07594C3.36848 2.12792 2.55746 2.14197 1.83652 2.90219C1.46848 3.29031 1.29549 3.72516 1.21615 4.22169C1.14269 4.68153 1.14454 5.236 1.14454 5.86882V14.7365C1.14454 15.2841 1.14454 15.7364 1.17229 16.0892C1.19947 16.4344 1.25861 16.7978 1.45517 17.1052C1.52798 17.2189 1.60902 17.3324 1.71745 17.4409C1.82589 17.5493 1.9394 17.6303 2.05315 17.7031C2.35682 17.8524 2.85066 17.9651 3.19362 17.9869C3.61549 18.0138 4.17519 18.0138 4.87476 18.0138H4.88819C6.87471 18.0109 8.79321 18.6955 10.3112 19.9375V3.66041Z" fill="currentColor"/>
<path d="M17.6521 2.07594C17.473 2.06642 17.2927 2.06252 17.1114 2.06251C15.1735 2.05993 13.2887 2.6213 11.6875 3.66041V18.8901L12.3472 16.9807C12.5663 16.1931 12.9856 15.4732 13.5665 14.8923L16.7408 11.7224C17.8429 10.7267 19.5449 10.7605 20.6071 11.8227L20.8542 12.0697V5.86882V5.82343C20.8543 5.20945 20.8543 4.6705 20.7826 4.22169C20.7032 3.72516 20.5302 3.29031 20.1622 2.90219C19.4412 2.14197 18.6302 2.12792 17.6521 2.07594Z" fill="currentColor"/>
</svg>
