<svg width="21" height="20" viewBox="0 0 21 20" fill="none" xmlns="http://www.w3.org/2000/svg">
<g>
<path fill-rule="evenodd" clip-rule="evenodd" d="M16.3872 8.04093C15.4699 5.66819 13.1814 3.77039 9.5135 4.10118C9.07592 4.14065 8.68925 3.81794 8.64979 3.38039C8.61033 2.94285 8.93306 2.55616 9.37056 2.5167C13.7759 2.1194 16.7089 4.46124 17.8711 7.46726C18.9069 10.1465 18.542 13.3974 16.5496 15.5977H17.2423C17.6816 15.5977 18.0378 15.9538 18.0378 16.3931C18.0378 16.8324 17.6816 17.1886 17.2423 17.1886H14.4582C14.019 17.1886 13.6628 16.8324 13.6628 16.3931V13.609C13.6628 13.1697 14.019 12.8136 14.4582 12.8136C14.8975 12.8136 15.2537 13.1697 15.2537 13.609V14.6538C16.8824 12.9617 17.2633 10.307 16.3872 8.04093ZM2.92415 4.46132C2.92415 4.022 3.28028 3.66586 3.7196 3.66586H6.50369C6.94301 3.66586 7.29915 4.022 7.29915 4.46132V6.84768C7.29915 7.287 6.94301 7.64314 6.50369 7.64314C6.06437 7.64314 5.70824 7.287 5.70824 6.84768V6.20025C4.07378 7.88902 3.69871 10.528 4.57967 12.7868C5.50188 15.1512 7.79472 17.0519 11.4481 16.7615C11.886 16.7266 12.2693 17.0534 12.3041 17.4913C12.339 17.9293 12.0121 18.3125 11.5742 18.3474C7.1931 18.6957 4.26441 16.3568 3.0975 13.3648C2.05484 10.6915 2.41344 7.45414 4.41139 5.25677H3.7196C3.28028 5.25677 2.92415 4.90064 2.92415 4.46132Z" fill="currentColor"/>
</g>
</svg>
