<svg width="22" height="22" viewBox="0 0 22 22" fill="none" xmlns="http://www.w3.org/2000/svg">
<path d="M15.582 2.52344C18.6514 2.52344 20.8528 5.00029 20.8529 7.97242C20.8529 8.63141 20.7272 9.29027 20.5136 9.94092C20.235 9.85952 19.9378 9.83477 19.6399 9.87822L19.4493 9.91498L19.3383 9.94807C18.476 10.2535 17.6148 10.8017 16.915 11.3706C16.3567 11.8601 15.3074 12.9402 14.3055 14.0901C14.0474 13.9196 13.5619 13.7183 13.3262 13.6309C13.2107 13.598 12.9609 13.5234 12.6029 13.5234C11.5351 13.5234 10.5511 14.3545 10.5511 15.3746C10.5511 16.7759 11.2518 17.3584 12.0711 17.5768C12.1975 17.7341 12.634 18.3429 12.8007 18.6761C12.8381 18.7248 12.8784 18.7709 12.9198 18.8157L12.867 18.857C11.8223 19.638 10.4315 19.6872 9.34347 19.0037L9.13045 18.857C7.81704 17.8748 5.84661 16.2532 4.19799 14.3578C2.57462 12.4913 1.14453 10.2262 1.14453 7.97242C1.14458 5.00029 3.34596 2.52344 6.41536 2.52344C7.87455 2.52344 9.28801 2.99339 10.9987 4.55371C12.7094 2.99339 14.1229 2.52344 15.582 2.52344Z" fill="currentColor"/>
<path d="M20.8013 11.6105C20.6429 11.1633 20.173 10.9161 19.7217 11.0259C18.9169 11.311 18.0569 11.8814 17.3817 12.4734C16.697 13.074 16.0564 13.7713 15.5126 14.4232C15.1101 14.9055 14.754 15.3704 14.4652 15.765C14.2007 15.4484 13.9367 15.2173 13.6855 15.0498C13.4339 14.8821 13.2038 14.7846 13.0132 14.7302C12.9188 14.7032 12.7286 14.6667 12.6042 14.6667C12.0979 14.6667 11.6875 15.0771 11.6875 15.5833C11.6875 16.0597 12.0509 16.451 12.5155 16.4955C12.5341 16.5016 12.5877 16.5213 12.6686 16.5752C12.8512 16.697 13.2753 17.1243 13.6792 17.9323C13.8392 18.1676 14.1021 18.3177 14.3909 18.3324C14.7207 18.3492 15.0338 18.1868 15.2109 17.9081C15.2915 17.7871 15.5304 17.4296 15.6818 17.2153C15.9852 16.7854 16.4148 16.204 16.9207 15.5976C17.4282 14.9892 18.0011 14.3687 18.5902 13.852C19.1889 13.327 19.8412 12.9179 20.3305 12.7447C20.7503 12.546 20.9598 12.0578 20.8013 11.6105Z" fill="currentColor"/>
</svg>
