<svg width="18" height="19" viewBox="0 0 18 19" fill="none" xmlns="http://www.w3.org/2000/svg">
<path d="M14.2613 4.23972C13.525 3.50343 12.3312 3.50343 11.5949 4.23972L10.6484 5.1862L13.3148 7.85254L14.2613 6.90606C14.9975 6.16977 14.9975 4.97601 14.2613 4.23972Z" fill="currentColor"/>
<path d="M12.5183 8.64685L9.852 5.98047L2.23972 13.5927C1.50343 14.329 1.50343 15.5228 2.23972 16.259C2.97601 16.9953 4.16977 16.9953 4.90606 16.259L12.5183 8.64685Z" fill="currentColor"/>
<path d="M12.9292 11.6535C13.0561 11.0322 13.9439 11.0322 14.0708 11.6535C14.2536 12.5476 14.9524 13.2464 15.8465 13.4292C16.4678 13.5562 16.4678 14.4439 15.8465 14.5708C14.9524 14.7536 14.2536 15.4524 14.0708 16.3465C13.9439 16.9678 13.0561 16.9678 12.9292 16.3465C12.7464 15.4524 12.0476 14.7536 11.1535 14.5708C10.5322 14.4439 10.5322 13.5562 11.1535 13.4292C12.0476 13.2464 12.7464 12.5476 12.9292 11.6535Z" fill="currentColor"/>
<path d="M6.09047 2.41976C6.15377 2.11008 6.59623 2.11008 6.65953 2.41976C6.79932 3.1037 7.33381 3.63818 8.01772 3.77798C8.3274 3.84127 8.3274 4.28373 8.01772 4.34702C7.33381 4.48682 6.79932 5.02131 6.65953 5.70525C6.59623 6.01492 6.15377 6.01492 6.09047 5.70525C5.95068 5.02131 5.41619 4.48682 4.73225 4.34702C4.42258 4.28373 4.42258 3.84127 4.73225 3.77798C5.41619 3.63818 5.95068 3.1037 6.09047 2.41976Z" fill="currentColor"/>
</svg>
