<svg width="20" height="21" viewBox="0 0 20 21" fill="none" xmlns="http://www.w3.org/2000/svg">
<g clip-path="url(#clip0_5606_12527)">
<path d="M1.67578 5.5L7.43663 8.76414C9.56045 9.9675 10.4578 9.9675 12.5816 8.76414L18.3424 5.5" stroke="currentColor" stroke-width="1.5" stroke-linejoin="round"/>
<path d="M1.68892 11.7271C1.7434 14.2817 1.77064 15.559 2.71325 16.5052C3.65585 17.4514 4.96772 17.4843 7.59147 17.5502C9.20853 17.5909 10.8097 17.5909 12.4268 17.5502C15.0505 17.4843 16.3624 17.4514 17.305 16.5052C18.2476 15.559 18.2749 14.2817 18.3293 11.7271C18.3469 10.9056 18.3469 10.0891 18.3293 9.26773C18.2749 6.71311 18.2476 5.43581 17.305 4.48961C16.3624 3.54342 15.0505 3.51046 12.4268 3.44454C10.8097 3.40391 9.20853 3.40391 7.59146 3.44453C4.96772 3.51045 3.65585 3.54341 2.71324 4.48961C1.77063 5.4358 1.7434 6.7131 1.68891 9.26773C1.6714 10.0891 1.67141 10.9056 1.68892 11.7271Z" stroke="currentColor" stroke-width="1.5" stroke-linejoin="round"/>
</g>
<defs>
<clipPath id="clip0_5606_12527">
<rect width="20" height="20" fill="white" transform="translate(0.00976562 0.5)"/>
</clipPath>
</defs>
</svg>
