<svg width="22" height="14" viewBox="0 0 22 14" fill="none" xmlns="http://www.w3.org/2000/svg">
<path d="M20.5333 12.4845C20.328 12.4844 20.125 12.4411 19.9375 12.3576C19.8939 12.3382 19.8523 12.3146 19.8133 12.287L16.0224 9.61858C15.8302 9.48325 15.6733 9.30368 15.5649 9.09501C15.4566 8.88634 15.4001 8.65469 15.4 8.41958V4.78042C15.4001 4.54531 15.4566 4.31366 15.5649 4.10499C15.6733 3.89632 15.8302 3.71675 16.0224 3.58142L19.8133 0.913C19.8523 0.885428 19.8939 0.861785 19.9375 0.842417C20.1608 0.743139 20.4054 0.701231 20.649 0.720501C20.8926 0.739771 21.1275 0.819608 21.3325 0.952759C21.5374 1.08591 21.7058 1.26815 21.8224 1.48293C21.9389 1.6977 22 1.93821 22 2.18258V11.0174C22 11.4064 21.8455 11.7795 21.5704 12.0545C21.2954 12.3296 20.9223 12.4841 20.5333 12.4841V12.4845ZM11.55 13.2H3.11667C2.29034 13.1992 1.49809 12.8705 0.913789 12.2862C0.329484 11.7019 0.000849324 10.9097 0 10.0833V3.11667C0.000849324 2.29034 0.329484 1.49809 0.913789 0.913789C1.49809 0.329484 2.29034 0.000849324 3.11667 0H11.572C12.3925 0.000970384 13.179 0.327326 13.7592 0.907478C14.3393 1.48763 14.6657 2.27421 14.6667 3.09467V10.0833C14.6658 10.9097 14.3372 11.7019 13.7529 12.2862C13.1686 12.8705 12.3763 13.1992 11.55 13.2Z" fill="white"/>
</svg>
