<svg width="15" height="16" viewBox="0 0 15 16" fill="none" xmlns="http://www.w3.org/2000/svg">
<path fill-rule="evenodd" clip-rule="evenodd" d="M7.5 1.28125C7.27831 1.28125 7.05194 1.3493 6.82175 1.43615C6.58869 1.52405 6.29763 1.65326 5.93465 1.81439C5.40114 2.05121 4.697 2.32301 3.94173 2.53771C3.39056 2.69438 2.94495 2.82104 2.60739 2.95194C2.26816 3.08349 1.96059 3.24666 1.75354 3.52078C1.55301 3.78625 1.47586 4.0964 1.44043 4.43088C1.40623 4.75373 1.40624 5.15881 1.40625 5.64926V7.48956C1.40625 9.3995 2.26841 10.914 3.31043 12.0429C4.34923 13.1682 5.58677 13.9337 6.40244 14.3642L6.44181 14.385C6.78919 14.5686 7.07319 14.7188 7.5 14.7188C7.92688 14.7188 8.21081 14.5686 8.55819 14.385L8.59756 14.3642C9.41325 13.9337 10.6508 13.1682 11.6896 12.0429C12.7316 10.914 13.5938 9.3995 13.5938 7.48956V5.64927C13.5938 5.15882 13.5937 4.75373 13.5596 4.43088C13.5241 4.0964 13.447 3.78625 13.2464 3.52078C13.0394 3.24666 12.7319 3.08349 12.3926 2.95194C12.0551 2.82105 11.6095 2.69439 11.0583 2.53773C10.3031 2.32303 9.59881 2.05121 9.06531 1.81437C8.70238 1.65325 8.41131 1.52405 8.17831 1.43615C7.94806 1.3493 7.72169 1.28125 7.5 1.28125ZM10.8336 6.71431C11.159 6.59908 11.3294 6.24189 11.2141 5.91652C11.0989 5.59114 10.7418 5.42079 10.4164 5.53603C9.8675 5.73041 9.34288 6.10112 8.8825 6.50488C8.41563 6.91431 7.97913 7.38969 7.60831 7.83419C7.33375 8.16331 7.091 8.48056 6.894 8.74981C6.7135 8.53363 6.53375 8.37569 6.36231 8.26138C6.19081 8.14706 5.97018 8.00019 5.625 8.00019C5.27983 8.00019 5 8.28 5 8.62519C5 8.95063 5.24874 9.21794 5.56649 9.24744C5.69401 9.25931 6.04056 9.60381 6.316 10.1547C6.41675 10.3561 6.61806 10.4878 6.84306 10.4994C7.06794 10.5109 7.28175 10.4004 7.40256 10.2103C7.40256 10.2103 7.62013 9.88381 7.72338 9.73756C7.93031 9.44444 8.22325 9.04838 8.56819 8.63494C8.91425 8.22006 9.305 7.79694 9.70669 7.44469C10.1148 7.08675 10.5001 6.83244 10.8336 6.71431Z" fill="#FD525A"/>
</svg>
