<svg width="30" height="26" viewBox="0 0 30 26" fill="none" xmlns="http://www.w3.org/2000/svg">
<path d="M25.9747 21.0993C25.7365 21.2816 25.4262 21.3787 25.1073 21.3706C24.7885 21.3626 24.4853 21.25 24.2601 21.056C24.0348 20.862 23.9046 20.6013 23.8962 20.3275C23.8877 20.0536 24.0016 19.7874 24.2145 19.5834C26.2945 17.7925 27.4626 15.3663 27.4626 12.8368C27.4626 10.3073 26.2945 7.8811 24.2145 6.09022C24.0878 5.99318 23.9854 5.87495 23.9137 5.74276C23.842 5.61057 23.8024 5.46721 23.7974 5.32143C23.7924 5.17566 23.8221 5.03055 23.8847 4.89497C23.9472 4.7594 24.0413 4.63621 24.1612 4.53294C24.2811 4.42967 24.4243 4.3485 24.582 4.29439C24.7397 4.24028 24.9086 4.21437 25.0783 4.21824C25.2481 4.22211 25.4151 4.25568 25.5692 4.31691C25.7234 4.37813 25.8613 4.46571 25.9747 4.5743C28.5227 6.76727 29.9537 9.73878 29.9537 12.8368C29.9537 15.9348 28.5227 18.9063 25.9747 21.0993Z" fill="white"/>
<path d="M22.5954 17.8836C22.4803 17.986 22.3425 18.0677 22.1902 18.1239C22.0379 18.1801 21.8741 18.2097 21.7084 18.2109C21.5426 18.2121 21.3782 18.185 21.2248 18.1311C21.0714 18.0772 20.932 17.9976 20.8148 17.8969C20.6976 17.7963 20.6049 17.6766 20.5422 17.5448C20.4794 17.4131 20.4478 17.2719 20.4493 17.1295C20.4507 16.9872 20.4851 16.8465 20.5506 16.7157C20.616 16.5849 20.7111 16.4666 20.8303 16.3677C21.9184 15.4305 22.5294 14.1609 22.5294 12.8374C22.5294 11.5138 21.9184 10.2443 20.8303 9.30703C20.7111 9.20813 20.616 9.08984 20.5506 8.95904C20.4851 8.82824 20.4507 8.68756 20.4493 8.54521C20.4478 8.40286 20.4794 8.26169 20.5422 8.12994C20.6049 7.99819 20.6976 7.87849 20.8148 7.77783C20.932 7.67717 21.0714 7.59756 21.2248 7.54366C21.3782 7.48975 21.5426 7.46262 21.7084 7.46386C21.8741 7.4651 22.0379 7.49467 22.1902 7.55086C22.3425 7.60705 22.4803 7.68872 22.5954 7.79111C24.1512 9.13062 25.025 10.9454 25.025 12.8374C25.025 14.7294 24.1512 16.5441 22.5954 17.8836Z" fill="white"/>
<path d="M17.2582 25.4784C13.4652 24.867 10.0908 23.0274 7.8322 20.3399H6.24934C4.5946 20.3382 3.00819 19.7729 1.8381 18.768C0.668019 17.7631 0.00979463 16.4007 0.0078125 14.9795L0.0078125 10.6912C0.00979463 9.27009 0.668019 7.90764 1.8381 6.90274C3.00819 5.89784 4.5946 5.33254 6.24934 5.33084H7.83345C10.0913 2.64327 13.4655 0.80365 17.2582 0.192379C17.4382 0.163929 17.6232 0.169817 17.8003 0.209629C17.9773 0.249439 18.142 0.322201 18.2827 0.422754C18.4234 0.523308 18.5366 0.649197 18.6143 0.791502C18.692 0.933807 18.7323 1.08905 18.7324 1.24623V24.4245C18.7323 24.5817 18.692 24.737 18.6143 24.8793C18.5366 25.0216 18.4234 25.1475 18.2827 25.248C18.142 25.3486 17.9773 25.4213 17.8003 25.4611C17.6232 25.5009 17.4382 25.5068 17.2582 25.4784Z" fill="white"/>
</svg>
