<svg width="373" height="213" viewBox="0 0 373 213" fill="none" xmlns="http://www.w3.org/2000/svg">
<g filter="url(#filter0_d_9655_11031)">
<path d="M104.926 140.808C109.431 139.525 119.158 137.152 122.082 139.217C123.759 140.854 122.083 142.62 120.548 143.35C115.935 145.542 106.58 141.82 104.926 140.808Z" fill="url(#paint0_linear_9655_11031)"/>
<path d="M251.02 139.217C253.943 137.152 263.671 139.525 268.175 140.808C266.521 141.82 257.166 145.542 252.553 143.35C251.018 142.62 249.342 140.854 251.02 139.217Z" fill="url(#paint1_linear_9655_11031)"/>
<path d="M88.8861 136.956C95.9467 135.36 96.297 129.67 108.08 134.33C102.86 142.244 91.7383 139.385 88.8861 136.956Z" fill="url(#paint2_linear_9655_11031)"/>
<path d="M265.021 134.33C276.804 129.671 277.154 135.36 284.215 136.956C281.363 139.385 270.241 142.244 265.021 134.33Z" fill="url(#paint3_linear_9655_11031)"/>
<path d="M115.23 128.057C120.309 128.823 124.548 132.145 125.052 134.376C126.059 137.769 124.143 139.003 120.533 138.408C116.475 137.769 117.242 131.908 115.23 128.057Z" fill="url(#paint4_linear_9655_11031)"/>
<path d="M257.871 128.057C255.859 131.908 256.626 137.769 252.568 138.408C248.959 139.003 247.042 137.769 248.049 134.376C248.553 132.145 252.792 128.823 257.871 128.057Z" fill="url(#paint5_linear_9655_11031)"/>
<path d="M100.258 122.962C102.162 125.059 112.258 125.738 108.435 133.74C98.4573 131.6 101.078 128.638 100.258 122.962Z" fill="url(#paint6_linear_9655_11031)"/>
<path d="M272.843 122.962C272.023 128.638 274.644 131.6 264.667 133.74C260.843 125.738 270.939 125.059 272.843 122.962Z" fill="url(#paint7_linear_9655_11031)"/>
<path d="M76.6215 125.923C82.7396 127.099 85.9544 122.955 92.3631 130.405C84.3461 134.579 77.4981 128.701 76.6215 125.923Z" fill="url(#paint8_linear_9655_11031)"/>
<path d="M280.737 130.405C287.146 122.955 290.361 127.099 296.48 125.923C295.603 128.701 288.755 134.58 280.737 130.405Z" fill="url(#paint9_linear_9655_11031)"/>
<path d="M92.4042 119.26C92.7423 121.471 99.9527 125.372 92.9356 130.082C86.5721 125.125 90.0723 123.787 92.4042 119.26Z" fill="url(#paint10_linear_9655_11031)"/>
<path d="M280.697 119.26C283.029 123.787 286.529 125.125 280.166 130.082C273.148 125.372 280.359 121.471 280.697 119.26Z" fill="url(#paint11_linear_9655_11031)"/>
<path d="M71.5467 116.609C76.6723 118.561 80.465 115.386 84.3988 122.916C76.363 125.4 71.6787 119.191 71.5467 116.609Z" fill="url(#paint12_linear_9655_11031)"/>
<path d="M301.554 116.609C301.422 119.191 296.738 125.4 288.702 122.916C292.636 115.386 296.428 118.561 301.554 116.609Z" fill="url(#paint13_linear_9655_11031)"/>
<path d="M87.0075 113.09C86.7955 115.091 92.2555 119.611 84.9782 122.716C80.5089 117.393 83.9054 116.736 87.0075 113.09Z" fill="url(#paint14_linear_9655_11031)"/>
<path d="M286.094 113.09C289.196 116.736 292.592 117.393 288.123 122.716C280.846 119.611 286.306 115.091 286.094 113.09Z" fill="url(#paint15_linear_9655_11031)"/>
<path d="M69.4619 108.153C73.1352 110.148 76.5303 108.055 78.4655 114.245C71.894 115.401 69.1856 110.16 69.4619 108.153Z" fill="url(#paint16_linear_9655_11031)"/>
<path d="M303.639 108.153C303.916 110.16 301.207 115.401 294.636 114.245C296.571 108.055 299.966 110.148 303.639 108.153Z" fill="url(#paint17_linear_9655_11031)"/>
<path d="M81.9205 106.902C81.4635 108.428 85.0189 112.438 78.9421 114.146C76.2697 109.61 78.9899 109.424 81.9205 106.902Z" fill="url(#paint18_linear_9655_11031)"/>
<path d="M291.181 106.902C294.111 109.424 296.831 109.61 294.159 114.146C288.082 112.438 291.638 108.428 291.181 106.902Z" fill="url(#paint19_linear_9655_11031)"/>
<path d="M81.5416 100.3C80.6389 101.61 82.6451 106.029 76.5118 106.358C75.4851 101.636 78.0474 102.021 81.5416 100.3Z" fill="url(#paint20_linear_9655_11031)"/>
<path d="M291.56 100.3C295.054 102.021 297.616 101.636 296.589 106.358C290.456 106.029 292.462 101.61 291.56 100.3Z" fill="url(#paint21_linear_9655_11031)"/>
<path d="M69.6785 98.9028C72.4296 101.49 76.216 100.258 76.0416 106.352C69.6274 106.072 68.7902 100.693 69.6785 98.9028Z" fill="url(#paint22_linear_9655_11031)"/>
<path d="M303.422 98.9028C304.31 100.693 303.473 106.072 297.059 106.352C296.885 100.258 300.671 101.49 303.422 98.9028Z" fill="url(#paint23_linear_9655_11031)"/>
<path d="M82.8413 93.7257C81.5671 94.8186 82.1668 99.4973 76.1201 98.6076C76.5626 93.8269 78.9295 94.706 82.8413 93.7257Z" fill="url(#paint24_linear_9655_11031)"/>
<path d="M290.26 93.7257C294.172 94.706 296.538 93.827 296.98 98.6076C290.934 99.4972 291.534 94.8186 290.26 93.7257Z" fill="url(#paint25_linear_9655_11031)"/>
<path d="M71.765 90.0321C73.6445 93.083 77.6906 92.6352 75.6661 98.509C69.5326 96.9729 70.3586 91.5929 71.765 90.0321Z" fill="url(#paint26_linear_9655_11031)"/>
<path d="M301.336 90.0321C302.742 91.5928 303.568 96.9729 297.435 98.509C295.41 92.6352 299.456 93.083 301.336 90.0321Z" fill="url(#paint27_linear_9655_11031)"/>
<path d="M85.7765 87.1747C84.4481 88.1115 84.4769 92.5727 78.8716 91.283C79.8385 86.8031 81.9713 87.8089 85.7765 87.1747Z" fill="url(#paint28_linear_9655_11031)"/>
<path d="M287.325 87.1747C291.13 87.8089 293.263 86.8031 294.23 91.283C288.624 92.5727 288.653 88.1115 287.325 87.1747Z" fill="url(#paint29_linear_9655_11031)"/>
<path d="M75.7458 82.8641C77.1693 85.8838 81.0404 85.7622 78.4545 91.1561C72.8414 89.2498 74.2389 84.2329 75.7458 82.8641Z" fill="url(#paint30_linear_9655_11031)"/>
<path d="M297.355 82.8641C298.862 84.2329 300.26 89.2498 294.647 91.1561C292.061 85.7622 295.932 85.8838 297.355 82.8641Z" fill="url(#paint31_linear_9655_11031)"/>
<path d="M82.3619 83.6758C84.1625 79.6126 85.9554 80.8294 89.64 80.7296C88.2106 81.4333 87.3445 85.6081 82.3619 83.6758Z" fill="url(#paint32_linear_9655_11031)"/>
<path d="M283.461 80.7296C287.146 80.8294 288.939 79.6126 290.739 83.6758C285.757 85.608 284.891 81.4333 283.461 80.7296Z" fill="url(#paint33_linear_9655_11031)"/>
<path d="M81.1245 75.3992C81.8512 78.4068 85.4945 78.7946 81.9974 83.5024C77.131 80.9927 79.4417 76.4836 81.1245 75.3992Z" fill="url(#paint34_linear_9655_11031)"/>
<path d="M291.976 75.3992C293.659 76.4835 295.97 80.9926 291.104 83.5024C287.607 78.7945 291.249 78.4068 291.976 75.3992Z" fill="url(#paint35_linear_9655_11031)"/>
<path d="M87.959 77.1465C90.0283 74.0741 91.2755 75.2276 94.2406 75.5163C92.9875 75.9366 91.6491 79.1918 87.959 77.1465Z" fill="url(#paint36_linear_9655_11031)"/>
<path d="M278.861 75.5163C281.826 75.2276 283.073 74.0741 285.142 77.1465C281.452 79.1918 280.114 75.9366 278.861 75.5163Z" fill="url(#paint37_linear_9655_11031)"/>
<path d="M88.2472 70.397C88.3642 72.8774 91.2209 73.5524 87.6938 76.9713C84.186 74.4753 86.7325 71.0968 88.2472 70.397Z" fill="url(#paint38_linear_9655_11031)"/>
<path d="M284.854 70.397C286.369 71.0968 288.915 74.4753 285.407 76.9713C281.88 73.5524 284.737 72.8774 284.854 70.397Z" fill="url(#paint39_linear_9655_11031)"/>
<path d="M91.3407 73.0656C91.4221 69.2981 96.2693 68.6631 97.914 69.1358C95.6455 70.8179 96.8622 73.0044 91.3407 73.0656Z" fill="url(#paint40_linear_9655_11031)"/>
<path d="M275.187 69.1358C276.832 68.6631 281.679 69.2981 281.761 73.0656C276.239 73.0044 277.456 70.8179 275.187 69.1358Z" fill="url(#paint41_linear_9655_11031)"/>
</g>
<path d="M117.356 114V102.75H113.882V100.59H123.242V102.75H119.822V114H117.356ZM123.465 114V104.208H125.679V106.386L125.499 106.062C125.727 105.33 126.081 104.82 126.561 104.532C127.053 104.244 127.641 104.1 128.325 104.1H128.901V106.188H128.055C127.383 106.188 126.843 106.398 126.435 106.818C126.027 107.226 125.823 107.802 125.823 108.546V114H123.465ZM133.69 114.216C132.934 114.216 132.274 114.048 131.71 113.712C131.158 113.376 130.732 112.908 130.432 112.308C130.144 111.708 130 111.006 130 110.202V104.208H132.358V110.004C132.358 110.412 132.436 110.772 132.592 111.084C132.76 111.384 132.994 111.624 133.294 111.804C133.606 111.972 133.954 112.056 134.338 112.056C134.722 112.056 135.064 111.972 135.364 111.804C135.664 111.624 135.898 111.378 136.066 111.066C136.234 110.754 136.318 110.382 136.318 109.95V104.208H138.676V114H136.444V112.074L136.642 112.416C136.414 113.016 136.036 113.466 135.508 113.766C134.992 114.066 134.386 114.216 133.69 114.216ZM145.512 114.216C144.504 114.216 143.622 113.988 142.866 113.532C142.11 113.076 141.522 112.458 141.102 111.678C140.682 110.898 140.472 110.034 140.472 109.086C140.472 108.102 140.682 107.232 141.102 106.476C141.534 105.708 142.116 105.102 142.848 104.658C143.592 104.214 144.42 103.992 145.332 103.992C146.1 103.992 146.772 104.118 147.348 104.37C147.936 104.622 148.434 104.97 148.842 105.414C149.25 105.858 149.562 106.368 149.778 106.944C149.994 107.508 150.102 108.12 150.102 108.78C150.102 108.948 150.09 109.122 150.066 109.302C150.054 109.482 150.024 109.638 149.976 109.77H142.416V107.97H148.644L147.528 108.816C147.636 108.264 147.606 107.772 147.438 107.34C147.282 106.908 147.018 106.566 146.646 106.314C146.286 106.062 145.848 105.936 145.332 105.936C144.84 105.936 144.402 106.062 144.018 106.314C143.634 106.554 143.34 106.914 143.136 107.394C142.944 107.862 142.872 108.432 142.92 109.104C142.872 109.704 142.95 110.238 143.154 110.706C143.37 111.162 143.682 111.516 144.09 111.768C144.51 112.02 144.99 112.146 145.53 112.146C146.07 112.146 146.526 112.032 146.898 111.804C147.282 111.576 147.582 111.27 147.798 110.886L149.706 111.822C149.514 112.29 149.214 112.704 148.806 113.064C148.398 113.424 147.912 113.706 147.348 113.91C146.796 114.114 146.184 114.216 145.512 114.216ZM155.615 114.216C154.571 114.216 153.659 113.97 152.879 113.478C152.111 112.974 151.583 112.296 151.295 111.444L153.059 110.598C153.311 111.15 153.659 111.582 154.103 111.894C154.559 112.206 155.063 112.362 155.615 112.362C156.047 112.362 156.389 112.266 156.641 112.074C156.893 111.882 157.019 111.63 157.019 111.318C157.019 111.126 156.965 110.97 156.857 110.85C156.761 110.718 156.623 110.61 156.443 110.526C156.275 110.43 156.089 110.352 155.885 110.292L154.283 109.842C153.455 109.602 152.825 109.236 152.393 108.744C151.973 108.252 151.763 107.67 151.763 106.998C151.763 106.398 151.913 105.876 152.213 105.432C152.525 104.976 152.951 104.622 153.491 104.37C154.043 104.118 154.673 103.992 155.381 103.992C156.305 103.992 157.121 104.214 157.829 104.658C158.537 105.102 159.041 105.726 159.341 106.53L157.541 107.376C157.373 106.932 157.091 106.578 156.695 106.314C156.299 106.05 155.855 105.918 155.363 105.918C154.967 105.918 154.655 106.008 154.427 106.188C154.199 106.368 154.085 106.602 154.085 106.89C154.085 107.07 154.133 107.226 154.229 107.358C154.325 107.49 154.457 107.598 154.625 107.682C154.805 107.766 155.009 107.844 155.237 107.916L156.803 108.384C157.607 108.624 158.225 108.984 158.657 109.464C159.101 109.944 159.323 110.532 159.323 111.228C159.323 111.816 159.167 112.338 158.855 112.794C158.543 113.238 158.111 113.586 157.559 113.838C157.007 114.09 156.359 114.216 155.615 114.216ZM165.599 114.108C164.495 114.108 163.637 113.808 163.025 113.208C162.425 112.596 162.125 111.738 162.125 110.634V106.314H160.433V104.208H160.613C161.093 104.208 161.465 104.082 161.729 103.83C161.993 103.578 162.125 103.212 162.125 102.732V101.976H164.483V104.208H166.733V106.314H164.483V110.508C164.483 110.832 164.537 111.108 164.645 111.336C164.765 111.564 164.945 111.738 165.185 111.858C165.437 111.978 165.755 112.038 166.139 112.038C166.223 112.038 166.319 112.032 166.427 112.02C166.547 112.008 166.661 111.996 166.769 111.984V114C166.601 114.024 166.409 114.048 166.193 114.072C165.977 114.096 165.779 114.108 165.599 114.108ZM173.127 114.216C172.119 114.216 171.237 113.988 170.481 113.532C169.725 113.076 169.137 112.458 168.717 111.678C168.297 110.898 168.087 110.034 168.087 109.086C168.087 108.102 168.297 107.232 168.717 106.476C169.149 105.708 169.731 105.102 170.463 104.658C171.207 104.214 172.035 103.992 172.947 103.992C173.715 103.992 174.387 104.118 174.963 104.37C175.551 104.622 176.049 104.97 176.457 105.414C176.865 105.858 177.177 106.368 177.393 106.944C177.609 107.508 177.717 108.12 177.717 108.78C177.717 108.948 177.705 109.122 177.681 109.302C177.669 109.482 177.639 109.638 177.591 109.77H170.031V107.97H176.259L175.143 108.816C175.251 108.264 175.221 107.772 175.053 107.34C174.897 106.908 174.633 106.566 174.261 106.314C173.901 106.062 173.463 105.936 172.947 105.936C172.455 105.936 172.017 106.062 171.633 106.314C171.249 106.554 170.955 106.914 170.751 107.394C170.559 107.862 170.487 108.432 170.535 109.104C170.487 109.704 170.565 110.238 170.769 110.706C170.985 111.162 171.297 111.516 171.705 111.768C172.125 112.02 172.605 112.146 173.145 112.146C173.685 112.146 174.141 112.032 174.513 111.804C174.897 111.576 175.197 111.27 175.413 110.886L177.321 111.822C177.129 112.29 176.829 112.704 176.421 113.064C176.013 113.424 175.527 113.706 174.963 113.91C174.411 114.114 173.799 114.216 173.127 114.216ZM184.058 114.216C183.11 114.216 182.264 113.994 181.52 113.55C180.776 113.094 180.188 112.476 179.756 111.696C179.324 110.916 179.108 110.052 179.108 109.104C179.108 108.144 179.324 107.28 179.756 106.512C180.188 105.744 180.776 105.132 181.52 104.676C182.276 104.22 183.116 103.992 184.04 103.992C184.784 103.992 185.444 104.142 186.02 104.442C186.608 104.73 187.07 105.138 187.406 105.666L187.046 106.152V100.374H189.404V114H187.172V112.11L187.424 112.578C187.088 113.106 186.62 113.514 186.02 113.802C185.42 114.078 184.766 114.216 184.058 114.216ZM184.31 112.056C184.85 112.056 185.324 111.93 185.732 111.678C186.14 111.426 186.458 111.078 186.686 110.634C186.926 110.19 187.046 109.68 187.046 109.104C187.046 108.54 186.926 108.036 186.686 107.592C186.458 107.136 186.14 106.782 185.732 106.53C185.324 106.278 184.85 106.152 184.31 106.152C183.782 106.152 183.308 106.284 182.888 106.548C182.468 106.8 182.138 107.148 181.898 107.592C181.67 108.024 181.556 108.528 181.556 109.104C181.556 109.68 181.67 110.19 181.898 110.634C182.138 111.078 182.468 111.426 182.888 111.678C183.308 111.93 183.782 112.056 184.31 112.056ZM200.143 114.216C199.435 114.216 198.781 114.078 198.181 113.802C197.593 113.514 197.125 113.106 196.777 112.578L197.011 112.11V114H194.797V100.374H197.155V106.152L196.795 105.666C197.131 105.138 197.587 104.73 198.163 104.442C198.739 104.142 199.405 103.992 200.161 103.992C201.085 103.992 201.919 104.22 202.663 104.676C203.407 105.132 203.995 105.744 204.427 106.512C204.871 107.28 205.093 108.144 205.093 109.104C205.093 110.052 204.877 110.916 204.445 111.696C204.013 112.476 203.425 113.094 202.681 113.55C201.937 113.994 201.091 114.216 200.143 114.216ZM199.873 112.056C200.413 112.056 200.893 111.93 201.313 111.678C201.733 111.426 202.057 111.078 202.285 110.634C202.525 110.19 202.645 109.68 202.645 109.104C202.645 108.528 202.525 108.024 202.285 107.592C202.057 107.148 201.733 106.8 201.313 106.548C200.893 106.284 200.413 106.152 199.873 106.152C199.357 106.152 198.889 106.278 198.469 106.53C198.061 106.782 197.737 107.136 197.497 107.592C197.269 108.036 197.155 108.54 197.155 109.104C197.155 109.68 197.269 110.19 197.497 110.634C197.737 111.078 198.061 111.426 198.469 111.678C198.889 111.93 199.357 112.056 199.873 112.056ZM207.903 117.96C207.639 117.96 207.381 117.936 207.129 117.888C206.877 117.852 206.649 117.78 206.445 117.672V115.71C206.601 115.746 206.787 115.782 207.003 115.818C207.231 115.854 207.441 115.872 207.633 115.872C208.173 115.872 208.563 115.746 208.803 115.494C209.055 115.254 209.277 114.93 209.469 114.522L210.117 113.01L210.081 114.99L205.815 104.208H208.353L211.341 112.164H210.441L213.411 104.208H215.967L211.701 114.99C211.449 115.614 211.143 116.148 210.783 116.592C210.423 117.036 210.003 117.372 209.523 117.6C209.055 117.84 208.515 117.96 207.903 117.96ZM167.879 133.216C166.847 133.216 165.929 133 165.125 132.568C164.333 132.136 163.709 131.542 163.253 130.786C162.797 130.03 162.569 129.172 162.569 128.212V119.59H165.017V128.086C165.017 128.638 165.137 129.136 165.377 129.58C165.629 130.024 165.971 130.372 166.403 130.624C166.835 130.864 167.327 130.984 167.879 130.984C168.443 130.984 168.935 130.864 169.355 130.624C169.787 130.372 170.123 130.024 170.363 129.58C170.615 129.136 170.741 128.638 170.741 128.086V119.59H173.189V128.212C173.189 129.172 172.961 130.03 172.505 130.786C172.049 131.542 171.419 132.136 170.615 132.568C169.823 133 168.911 133.216 167.879 133.216ZM179.161 133.216C178.117 133.216 177.205 132.97 176.425 132.478C175.657 131.974 175.129 131.296 174.841 130.444L176.605 129.598C176.857 130.15 177.205 130.582 177.649 130.894C178.105 131.206 178.609 131.362 179.161 131.362C179.593 131.362 179.935 131.266 180.187 131.074C180.439 130.882 180.565 130.63 180.565 130.318C180.565 130.126 180.511 129.97 180.403 129.85C180.307 129.718 180.169 129.61 179.989 129.526C179.821 129.43 179.635 129.352 179.431 129.292L177.829 128.842C177.001 128.602 176.371 128.236 175.939 127.744C175.519 127.252 175.309 126.67 175.309 125.998C175.309 125.398 175.459 124.876 175.759 124.432C176.071 123.976 176.497 123.622 177.037 123.37C177.589 123.118 178.219 122.992 178.927 122.992C179.851 122.992 180.667 123.214 181.375 123.658C182.083 124.102 182.587 124.726 182.887 125.53L181.087 126.376C180.919 125.932 180.637 125.578 180.241 125.314C179.845 125.05 179.401 124.918 178.909 124.918C178.513 124.918 178.201 125.008 177.973 125.188C177.745 125.368 177.631 125.602 177.631 125.89C177.631 126.07 177.679 126.226 177.775 126.358C177.871 126.49 178.003 126.598 178.171 126.682C178.351 126.766 178.555 126.844 178.783 126.916L180.349 127.384C181.153 127.624 181.771 127.984 182.203 128.464C182.647 128.944 182.869 129.532 182.869 130.228C182.869 130.816 182.713 131.338 182.401 131.794C182.089 132.238 181.657 132.586 181.105 132.838C180.553 133.09 179.905 133.216 179.161 133.216ZM189.325 133.216C188.317 133.216 187.435 132.988 186.679 132.532C185.923 132.076 185.335 131.458 184.915 130.678C184.495 129.898 184.285 129.034 184.285 128.086C184.285 127.102 184.495 126.232 184.915 125.476C185.347 124.708 185.929 124.102 186.661 123.658C187.405 123.214 188.233 122.992 189.145 122.992C189.913 122.992 190.585 123.118 191.161 123.37C191.749 123.622 192.247 123.97 192.655 124.414C193.063 124.858 193.375 125.368 193.591 125.944C193.807 126.508 193.915 127.12 193.915 127.78C193.915 127.948 193.903 128.122 193.879 128.302C193.867 128.482 193.837 128.638 193.789 128.77H186.229V126.97H192.457L191.341 127.816C191.449 127.264 191.419 126.772 191.251 126.34C191.095 125.908 190.831 125.566 190.459 125.314C190.099 125.062 189.661 124.936 189.145 124.936C188.653 124.936 188.215 125.062 187.831 125.314C187.447 125.554 187.153 125.914 186.949 126.394C186.757 126.862 186.685 127.432 186.733 128.104C186.685 128.704 186.763 129.238 186.967 129.706C187.183 130.162 187.495 130.516 187.903 130.768C188.323 131.02 188.803 131.146 189.343 131.146C189.883 131.146 190.339 131.032 190.711 130.804C191.095 130.576 191.395 130.27 191.611 129.886L193.519 130.822C193.327 131.29 193.027 131.704 192.619 132.064C192.211 132.424 191.725 132.706 191.161 132.91C190.609 133.114 189.997 133.216 189.325 133.216ZM195.702 133V123.208H197.916V125.386L197.736 125.062C197.964 124.33 198.318 123.82 198.798 123.532C199.29 123.244 199.878 123.1 200.562 123.1H201.138V125.188H200.292C199.62 125.188 199.08 125.398 198.672 125.818C198.264 126.226 198.06 126.802 198.06 127.546V133H195.702ZM206.161 133.216C205.117 133.216 204.205 132.97 203.425 132.478C202.657 131.974 202.129 131.296 201.841 130.444L203.605 129.598C203.857 130.15 204.205 130.582 204.649 130.894C205.105 131.206 205.609 131.362 206.161 131.362C206.593 131.362 206.935 131.266 207.187 131.074C207.439 130.882 207.565 130.63 207.565 130.318C207.565 130.126 207.511 129.97 207.403 129.85C207.307 129.718 207.169 129.61 206.989 129.526C206.821 129.43 206.635 129.352 206.431 129.292L204.829 128.842C204.001 128.602 203.371 128.236 202.939 127.744C202.519 127.252 202.309 126.67 202.309 125.998C202.309 125.398 202.459 124.876 202.759 124.432C203.071 123.976 203.497 123.622 204.037 123.37C204.589 123.118 205.219 122.992 205.927 122.992C206.851 122.992 207.667 123.214 208.375 123.658C209.083 124.102 209.587 124.726 209.887 125.53L208.087 126.376C207.919 125.932 207.637 125.578 207.241 125.314C206.845 125.05 206.401 124.918 205.909 124.918C205.513 124.918 205.201 125.008 204.973 125.188C204.745 125.368 204.631 125.602 204.631 125.89C204.631 126.07 204.679 126.226 204.775 126.358C204.871 126.49 205.003 126.598 205.171 126.682C205.351 126.766 205.555 126.844 205.783 126.916L207.349 127.384C208.153 127.624 208.771 127.984 209.203 128.464C209.647 128.944 209.869 129.532 209.869 130.228C209.869 130.816 209.713 131.338 209.401 131.794C209.089 132.238 208.657 132.586 208.105 132.838C207.553 133.09 206.905 133.216 206.161 133.216Z" fill="white"/>
<path d="M224.637 114.216C223.905 114.216 223.209 114.084 222.549 113.82C221.901 113.544 221.343 113.16 220.875 112.668C220.419 112.164 220.107 111.57 219.939 110.886L222.081 110.13C222.297 110.742 222.627 111.21 223.071 111.534C223.515 111.846 224.037 112.002 224.637 112.002C225.117 112.002 225.531 111.912 225.879 111.732C226.239 111.552 226.521 111.294 226.725 110.958C226.929 110.61 227.031 110.202 227.031 109.734C227.031 109.266 226.929 108.87 226.725 108.546C226.533 108.21 226.257 107.952 225.897 107.772C225.537 107.592 225.111 107.502 224.619 107.502C224.391 107.502 224.151 107.526 223.899 107.574C223.659 107.622 223.443 107.694 223.251 107.79L222.693 106.62L226.167 102.66H220.695V100.59H228.921V102.516L225.429 106.602L225.465 105.684C226.269 105.696 226.971 105.87 227.571 106.206C228.171 106.542 228.639 107.004 228.975 107.592C229.311 108.18 229.479 108.87 229.479 109.662C229.479 110.526 229.269 111.306 228.849 112.002C228.429 112.686 227.853 113.226 227.121 113.622C226.389 114.018 225.561 114.216 224.637 114.216ZM231.663 114V100.59H234.003L239.025 107.412H237.909L242.823 100.59H245.163V114H242.697V103.38L243.651 103.614L238.557 110.4H238.269L233.301 103.614L234.111 103.38V114H231.663ZM251.366 114V110.508H247.874V108.474H251.366V105H253.4V108.474H256.874V110.508H253.4V114H251.366Z" fill="url(#paint42_linear_9655_11031)"/>
<path d="M147.239 76.6318C147.672 75.7904 148.887 75.7905 149.32 76.6318L150.78 79.4688C150.804 79.5157 150.85 79.5483 150.902 79.5566L154.075 80.0576C155.016 80.2061 155.391 81.3474 154.719 82.0156L152.447 84.2715C152.41 84.3089 152.392 84.3619 152.4 84.4141L152.901 87.5615C153.049 88.4942 152.067 89.1999 151.218 88.7715L148.355 87.3281C148.308 87.3042 148.252 87.3041 148.204 87.3281L145.343 88.7715C144.493 89.2001 143.511 88.4943 143.659 87.5615L144.16 84.4141C144.168 84.362 144.151 84.3088 144.113 84.2715L141.842 82.0156C141.169 81.3474 141.544 80.206 142.485 80.0576L145.658 79.5566C145.711 79.5482 145.756 79.5157 145.78 79.4688L147.239 76.6318ZM184.995 76.6318C185.428 75.7905 186.643 75.7904 187.076 76.6318L188.535 79.4688C188.559 79.5158 188.606 79.5483 188.658 79.5566L191.831 80.0576C192.772 80.2063 193.146 81.3475 192.474 82.0156L190.202 84.2715C190.165 84.3088 190.148 84.3621 190.156 84.4141L190.656 87.5615C190.804 88.4943 189.822 89.2001 188.973 88.7715L186.111 87.3281C186.064 87.3041 186.008 87.3041 185.96 87.3281L183.099 88.7715C182.249 89.2001 181.267 88.4943 181.415 87.5615L181.915 84.4141C181.923 84.3621 181.907 84.3088 181.869 84.2715L179.598 82.0156C178.925 81.3475 179.299 80.2063 180.24 80.0576L183.413 79.5566C183.466 79.5483 183.511 79.5157 183.535 79.4688L184.995 76.6318ZM203.867 76.6318C204.301 75.7905 205.515 75.7904 205.948 76.6318L207.407 79.4688C207.431 79.5158 207.478 79.5483 207.53 79.5566L210.702 80.0576C211.643 80.206 212.018 81.3474 211.346 82.0156L209.074 84.2715C209.037 84.3088 209.019 84.362 209.027 84.4141L209.528 87.5615C209.676 88.4943 208.694 89.2001 207.845 88.7715L204.983 87.3281C204.936 87.3041 204.88 87.3042 204.832 87.3281L201.97 88.7715C201.12 89.1998 200.139 88.4942 200.287 87.5615L200.787 84.4141C200.795 84.3619 200.778 84.3089 200.74 84.2715L198.47 82.0156C197.797 81.3474 198.171 80.2062 199.112 80.0576L202.285 79.5566C202.338 79.5483 202.383 79.5157 202.407 79.4688L203.867 76.6318ZM166.119 76.6309C166.552 75.7894 167.767 75.7895 168.2 76.6309L169.66 79.4678C169.684 79.5147 169.73 79.5474 169.782 79.5557L172.955 80.0566C173.896 80.2052 174.271 81.3465 173.598 82.0146L171.327 84.2705C171.29 84.3079 171.272 84.361 171.28 84.4131L171.78 87.5605C171.928 88.4934 170.946 89.1991 170.097 88.7705L167.235 87.3271C167.188 87.3032 167.132 87.3031 167.084 87.3271L164.223 88.7705C163.373 89.1991 162.391 88.4933 162.539 87.5605L163.04 84.4131C163.048 84.3611 163.031 84.3079 162.993 84.2705L160.722 82.0146C160.049 81.3465 160.424 80.2054 161.364 80.0566L164.537 79.5557C164.59 79.5474 164.636 79.5148 164.66 79.4678L166.119 76.6309ZM222.747 76.6309C223.18 75.7897 224.394 75.7897 224.827 76.6309L226.287 79.4678C226.311 79.5147 226.357 79.5473 226.409 79.5557L229.582 80.0566C230.523 80.205 230.898 81.3464 230.226 82.0146L227.954 84.2705C227.917 84.3079 227.899 84.361 227.907 84.4131L228.408 87.5605C228.556 88.4933 227.574 89.1991 226.725 88.7705L223.863 87.3271C223.816 87.3032 223.759 87.3033 223.712 87.3271L220.85 88.7705C220 89.199 219.018 88.4933 219.166 87.5605L219.667 84.4131C219.675 84.361 219.658 84.3079 219.62 84.2705L217.349 82.0146C216.676 81.3464 217.051 80.205 217.992 80.0566L221.165 79.5557C221.218 79.5473 221.263 79.5147 221.287 79.4678L222.747 76.6309Z" fill="url(#paint43_linear_9655_11031)"/>
<defs>
<filter id="filter0_d_9655_11031" x="-1" y="0.5" width="374" height="212.031" filterUnits="userSpaceOnUse" color-interpolation-filters="sRGB">
<feFlood flood-opacity="0" result="BackgroundImageFix"/>
<feColorMatrix in="SourceAlpha" type="matrix" values="0 0 0 0 0 0 0 0 0 0 0 0 0 0 0 0 0 0 127 0" result="hardAlpha"/>
<feOffset/>
<feGaussianBlur stdDeviation="34.25"/>
<feComposite in2="hardAlpha" operator="out"/>
<feColorMatrix type="matrix" values="0 0 0 0 1 0 0 0 0 0.6 0 0 0 0 0 0 0 0 1 0"/>
<feBlend mode="normal" in2="BackgroundImageFix" result="effect1_dropShadow_9655_11031"/>
<feBlend mode="normal" in="SourceGraphic" in2="effect1_dropShadow_9655_11031" result="shape"/>
</filter>
<linearGradient id="paint0_linear_9655_11031" x1="204.689" y1="44.6154" x2="204.932" y2="144.03" gradientUnits="userSpaceOnUse">
<stop stop-color="#FF7A00"/>
<stop offset="0.745192" stop-color="#E7AC18"/>
<stop offset="1" stop-color="#F8C73D"/>
</linearGradient>
<linearGradient id="paint1_linear_9655_11031" x1="204.689" y1="44.6154" x2="204.932" y2="144.03" gradientUnits="userSpaceOnUse">
<stop stop-color="#FF7A00"/>
<stop offset="0.745192" stop-color="#E7AC18"/>
<stop offset="1" stop-color="#F8C73D"/>
</linearGradient>
<linearGradient id="paint2_linear_9655_11031" x1="204.689" y1="44.6154" x2="204.932" y2="144.03" gradientUnits="userSpaceOnUse">
<stop stop-color="#FF7A00"/>
<stop offset="0.745192" stop-color="#E7AC18"/>
<stop offset="1" stop-color="#F8C73D"/>
</linearGradient>
<linearGradient id="paint3_linear_9655_11031" x1="204.689" y1="44.6154" x2="204.932" y2="144.03" gradientUnits="userSpaceOnUse">
<stop stop-color="#FF7A00"/>
<stop offset="0.745192" stop-color="#E7AC18"/>
<stop offset="1" stop-color="#F8C73D"/>
</linearGradient>
<linearGradient id="paint4_linear_9655_11031" x1="204.689" y1="44.6154" x2="204.932" y2="144.03" gradientUnits="userSpaceOnUse">
<stop stop-color="#FF7A00"/>
<stop offset="0.745192" stop-color="#E7AC18"/>
<stop offset="1" stop-color="#F8C73D"/>
</linearGradient>
<linearGradient id="paint5_linear_9655_11031" x1="204.689" y1="44.6154" x2="204.932" y2="144.03" gradientUnits="userSpaceOnUse">
<stop stop-color="#FF7A00"/>
<stop offset="0.745192" stop-color="#E7AC18"/>
<stop offset="1" stop-color="#F8C73D"/>
</linearGradient>
<linearGradient id="paint6_linear_9655_11031" x1="204.689" y1="44.6154" x2="204.932" y2="144.03" gradientUnits="userSpaceOnUse">
<stop stop-color="#FF7A00"/>
<stop offset="0.745192" stop-color="#E7AC18"/>
<stop offset="1" stop-color="#F8C73D"/>
</linearGradient>
<linearGradient id="paint7_linear_9655_11031" x1="204.689" y1="44.6154" x2="204.932" y2="144.03" gradientUnits="userSpaceOnUse">
<stop stop-color="#FF7A00"/>
<stop offset="0.745192" stop-color="#E7AC18"/>
<stop offset="1" stop-color="#F8C73D"/>
</linearGradient>
<linearGradient id="paint8_linear_9655_11031" x1="204.689" y1="44.6154" x2="204.932" y2="144.03" gradientUnits="userSpaceOnUse">
<stop stop-color="#FF7A00"/>
<stop offset="0.745192" stop-color="#E7AC18"/>
<stop offset="1" stop-color="#F8C73D"/>
</linearGradient>
<linearGradient id="paint9_linear_9655_11031" x1="204.689" y1="44.6154" x2="204.932" y2="144.03" gradientUnits="userSpaceOnUse">
<stop stop-color="#FF7A00"/>
<stop offset="0.745192" stop-color="#E7AC18"/>
<stop offset="1" stop-color="#F8C73D"/>
</linearGradient>
<linearGradient id="paint10_linear_9655_11031" x1="204.689" y1="44.6154" x2="204.932" y2="144.03" gradientUnits="userSpaceOnUse">
<stop stop-color="#FF7A00"/>
<stop offset="0.745192" stop-color="#E7AC18"/>
<stop offset="1" stop-color="#F8C73D"/>
</linearGradient>
<linearGradient id="paint11_linear_9655_11031" x1="204.689" y1="44.6154" x2="204.932" y2="144.03" gradientUnits="userSpaceOnUse">
<stop stop-color="#FF7A00"/>
<stop offset="0.745192" stop-color="#E7AC18"/>
<stop offset="1" stop-color="#F8C73D"/>
</linearGradient>
<linearGradient id="paint12_linear_9655_11031" x1="204.689" y1="44.6154" x2="204.932" y2="144.03" gradientUnits="userSpaceOnUse">
<stop stop-color="#FF7A00"/>
<stop offset="0.745192" stop-color="#E7AC18"/>
<stop offset="1" stop-color="#F8C73D"/>
</linearGradient>
<linearGradient id="paint13_linear_9655_11031" x1="204.689" y1="44.6154" x2="204.932" y2="144.03" gradientUnits="userSpaceOnUse">
<stop stop-color="#FF7A00"/>
<stop offset="0.745192" stop-color="#E7AC18"/>
<stop offset="1" stop-color="#F8C73D"/>
</linearGradient>
<linearGradient id="paint14_linear_9655_11031" x1="204.689" y1="44.6154" x2="204.932" y2="144.03" gradientUnits="userSpaceOnUse">
<stop stop-color="#FF7A00"/>
<stop offset="0.745192" stop-color="#E7AC18"/>
<stop offset="1" stop-color="#F8C73D"/>
</linearGradient>
<linearGradient id="paint15_linear_9655_11031" x1="204.689" y1="44.6154" x2="204.932" y2="144.03" gradientUnits="userSpaceOnUse">
<stop stop-color="#FF7A00"/>
<stop offset="0.745192" stop-color="#E7AC18"/>
<stop offset="1" stop-color="#F8C73D"/>
</linearGradient>
<linearGradient id="paint16_linear_9655_11031" x1="204.689" y1="44.6154" x2="204.932" y2="144.03" gradientUnits="userSpaceOnUse">
<stop stop-color="#FF7A00"/>
<stop offset="0.745192" stop-color="#E7AC18"/>
<stop offset="1" stop-color="#F8C73D"/>
</linearGradient>
<linearGradient id="paint17_linear_9655_11031" x1="204.689" y1="44.6154" x2="204.932" y2="144.03" gradientUnits="userSpaceOnUse">
<stop stop-color="#FF7A00"/>
<stop offset="0.745192" stop-color="#E7AC18"/>
<stop offset="1" stop-color="#F8C73D"/>
</linearGradient>
<linearGradient id="paint18_linear_9655_11031" x1="204.689" y1="44.6154" x2="204.932" y2="144.03" gradientUnits="userSpaceOnUse">
<stop stop-color="#FF7A00"/>
<stop offset="0.745192" stop-color="#E7AC18"/>
<stop offset="1" stop-color="#F8C73D"/>
</linearGradient>
<linearGradient id="paint19_linear_9655_11031" x1="204.689" y1="44.6154" x2="204.932" y2="144.03" gradientUnits="userSpaceOnUse">
<stop stop-color="#FF7A00"/>
<stop offset="0.745192" stop-color="#E7AC18"/>
<stop offset="1" stop-color="#F8C73D"/>
</linearGradient>
<linearGradient id="paint20_linear_9655_11031" x1="204.689" y1="44.6154" x2="204.932" y2="144.03" gradientUnits="userSpaceOnUse">
<stop stop-color="#FF7A00"/>
<stop offset="0.745192" stop-color="#E7AC18"/>
<stop offset="1" stop-color="#F8C73D"/>
</linearGradient>
<linearGradient id="paint21_linear_9655_11031" x1="204.689" y1="44.6154" x2="204.932" y2="144.03" gradientUnits="userSpaceOnUse">
<stop stop-color="#FF7A00"/>
<stop offset="0.745192" stop-color="#E7AC18"/>
<stop offset="1" stop-color="#F8C73D"/>
</linearGradient>
<linearGradient id="paint22_linear_9655_11031" x1="204.689" y1="44.6154" x2="204.932" y2="144.03" gradientUnits="userSpaceOnUse">
<stop stop-color="#FF7A00"/>
<stop offset="0.745192" stop-color="#E7AC18"/>
<stop offset="1" stop-color="#F8C73D"/>
</linearGradient>
<linearGradient id="paint23_linear_9655_11031" x1="204.689" y1="44.6154" x2="204.932" y2="144.03" gradientUnits="userSpaceOnUse">
<stop stop-color="#FF7A00"/>
<stop offset="0.745192" stop-color="#E7AC18"/>
<stop offset="1" stop-color="#F8C73D"/>
</linearGradient>
<linearGradient id="paint24_linear_9655_11031" x1="204.689" y1="44.6154" x2="204.932" y2="144.03" gradientUnits="userSpaceOnUse">
<stop stop-color="#FF7A00"/>
<stop offset="0.745192" stop-color="#E7AC18"/>
<stop offset="1" stop-color="#F8C73D"/>
</linearGradient>
<linearGradient id="paint25_linear_9655_11031" x1="204.689" y1="44.6154" x2="204.932" y2="144.03" gradientUnits="userSpaceOnUse">
<stop stop-color="#FF7A00"/>
<stop offset="0.745192" stop-color="#E7AC18"/>
<stop offset="1" stop-color="#F8C73D"/>
</linearGradient>
<linearGradient id="paint26_linear_9655_11031" x1="204.689" y1="44.6154" x2="204.932" y2="144.03" gradientUnits="userSpaceOnUse">
<stop stop-color="#FF7A00"/>
<stop offset="0.745192" stop-color="#E7AC18"/>
<stop offset="1" stop-color="#F8C73D"/>
</linearGradient>
<linearGradient id="paint27_linear_9655_11031" x1="204.689" y1="44.6154" x2="204.932" y2="144.03" gradientUnits="userSpaceOnUse">
<stop stop-color="#FF7A00"/>
<stop offset="0.745192" stop-color="#E7AC18"/>
<stop offset="1" stop-color="#F8C73D"/>
</linearGradient>
<linearGradient id="paint28_linear_9655_11031" x1="204.689" y1="44.6154" x2="204.932" y2="144.03" gradientUnits="userSpaceOnUse">
<stop stop-color="#FF7A00"/>
<stop offset="0.745192" stop-color="#E7AC18"/>
<stop offset="1" stop-color="#F8C73D"/>
</linearGradient>
<linearGradient id="paint29_linear_9655_11031" x1="204.689" y1="44.6154" x2="204.932" y2="144.03" gradientUnits="userSpaceOnUse">
<stop stop-color="#FF7A00"/>
<stop offset="0.745192" stop-color="#E7AC18"/>
<stop offset="1" stop-color="#F8C73D"/>
</linearGradient>
<linearGradient id="paint30_linear_9655_11031" x1="204.689" y1="44.6154" x2="204.932" y2="144.03" gradientUnits="userSpaceOnUse">
<stop stop-color="#FF7A00"/>
<stop offset="0.745192" stop-color="#E7AC18"/>
<stop offset="1" stop-color="#F8C73D"/>
</linearGradient>
<linearGradient id="paint31_linear_9655_11031" x1="204.689" y1="44.6154" x2="204.932" y2="144.03" gradientUnits="userSpaceOnUse">
<stop stop-color="#FF7A00"/>
<stop offset="0.745192" stop-color="#E7AC18"/>
<stop offset="1" stop-color="#F8C73D"/>
</linearGradient>
<linearGradient id="paint32_linear_9655_11031" x1="204.689" y1="44.6154" x2="204.932" y2="144.03" gradientUnits="userSpaceOnUse">
<stop stop-color="#FF7A00"/>
<stop offset="0.745192" stop-color="#E7AC18"/>
<stop offset="1" stop-color="#F8C73D"/>
</linearGradient>
<linearGradient id="paint33_linear_9655_11031" x1="204.689" y1="44.6154" x2="204.932" y2="144.03" gradientUnits="userSpaceOnUse">
<stop stop-color="#FF7A00"/>
<stop offset="0.745192" stop-color="#E7AC18"/>
<stop offset="1" stop-color="#F8C73D"/>
</linearGradient>
<linearGradient id="paint34_linear_9655_11031" x1="204.689" y1="44.6154" x2="204.932" y2="144.03" gradientUnits="userSpaceOnUse">
<stop stop-color="#FF7A00"/>
<stop offset="0.745192" stop-color="#E7AC18"/>
<stop offset="1" stop-color="#F8C73D"/>
</linearGradient>
<linearGradient id="paint35_linear_9655_11031" x1="204.689" y1="44.6154" x2="204.932" y2="144.03" gradientUnits="userSpaceOnUse">
<stop stop-color="#FF7A00"/>
<stop offset="0.745192" stop-color="#E7AC18"/>
<stop offset="1" stop-color="#F8C73D"/>
</linearGradient>
<linearGradient id="paint36_linear_9655_11031" x1="204.689" y1="44.6154" x2="204.932" y2="144.03" gradientUnits="userSpaceOnUse">
<stop stop-color="#FF7A00"/>
<stop offset="0.745192" stop-color="#E7AC18"/>
<stop offset="1" stop-color="#F8C73D"/>
</linearGradient>
<linearGradient id="paint37_linear_9655_11031" x1="204.689" y1="44.6154" x2="204.932" y2="144.03" gradientUnits="userSpaceOnUse">
<stop stop-color="#FF7A00"/>
<stop offset="0.745192" stop-color="#E7AC18"/>
<stop offset="1" stop-color="#F8C73D"/>
</linearGradient>
<linearGradient id="paint38_linear_9655_11031" x1="204.689" y1="44.6154" x2="204.932" y2="144.03" gradientUnits="userSpaceOnUse">
<stop stop-color="#FF7A00"/>
<stop offset="0.745192" stop-color="#E7AC18"/>
<stop offset="1" stop-color="#F8C73D"/>
</linearGradient>
<linearGradient id="paint39_linear_9655_11031" x1="204.689" y1="44.6154" x2="204.932" y2="144.03" gradientUnits="userSpaceOnUse">
<stop stop-color="#FF7A00"/>
<stop offset="0.745192" stop-color="#E7AC18"/>
<stop offset="1" stop-color="#F8C73D"/>
</linearGradient>
<linearGradient id="paint40_linear_9655_11031" x1="204.689" y1="44.6154" x2="204.932" y2="144.03" gradientUnits="userSpaceOnUse">
<stop stop-color="#FF7A00"/>
<stop offset="0.745192" stop-color="#E7AC18"/>
<stop offset="1" stop-color="#F8C73D"/>
</linearGradient>
<linearGradient id="paint41_linear_9655_11031" x1="204.689" y1="44.6154" x2="204.932" y2="144.03" gradientUnits="userSpaceOnUse">
<stop stop-color="#FF7A00"/>
<stop offset="0.745192" stop-color="#E7AC18"/>
<stop offset="1" stop-color="#F8C73D"/>
</linearGradient>
<linearGradient id="paint42_linear_9655_11031" x1="96.5" y1="116.5" x2="275.487" y2="116.5" gradientUnits="userSpaceOnUse">
<stop stop-color="#B46A11"/>
<stop offset="0.32" stop-color="#D68D15"/>
<stop offset="0.68" stop-color="#E7AC18"/>
<stop offset="1" stop-color="#F8C73D"/>
</linearGradient>
<linearGradient id="paint43_linear_9655_11031" x1="141.5" y1="82.4501" x2="230.561" y2="82.4501" gradientUnits="userSpaceOnUse">
<stop stop-color="#B46A11"/>
<stop offset="0.32" stop-color="#D68D15"/>
<stop offset="0.68" stop-color="#E7AC18"/>
<stop offset="1" stop-color="#F8C73D"/>
</linearGradient>
</defs>
</svg>
