<svg xmlns="http://www.w3.org/2000/svg" width="126" height="42" fill="none"><path fill="#F1BC2E" fill-rule="evenodd" d="M37.29 2.144a.76.76 0 0 1 1.35 0l.947 1.84c.016.03.045.052.08.057l2.058.325c.61.096.854.837.417 1.27L40.668 7.1a.106.106 0 0 0-.03.092l.325 2.042c.096.605-.541 1.064-1.092.786l-1.857-.937a.11.11 0 0 0-.098 0l-1.856.937c-.552.278-1.189-.18-1.093-.786l.325-2.042a.107.107 0 0 0-.03-.092l-1.474-1.463a.748.748 0 0 1 .418-1.271l2.058-.325a.108.108 0 0 0 .08-.057l.946-1.84Z" clip-rule="evenodd"/><g clip-path="url(#a)"><path fill="#F1BC2E" fill-rule="evenodd" d="M50.095 2.144a.76.76 0 0 1 1.35 0l.947 1.84c.015.03.045.052.08.057l2.057.325c.611.096.854.837.418 1.27L53.473 7.1a.106.106 0 0 0-.03.092l.325 2.042c.096.605-.541 1.064-1.093.786l-1.856-.937a.11.11 0 0 0-.098 0l-1.857.937c-.551.278-1.188-.18-1.092-.786l.325-2.042a.106.106 0 0 0-.03-.092l-1.474-1.463a.748.748 0 0 1 .417-1.271l2.059-.325a.108.108 0 0 0 .079-.057l.947-1.84Z" clip-rule="evenodd"/></g><path fill="#F1BC2E" fill-rule="evenodd" d="M62.892 2.144a.76.76 0 0 1 1.35 0l.947 1.84c.015.03.045.052.079.057l2.058.325c.61.096.854.837.418 1.27L66.27 7.1a.106.106 0 0 0-.03.092l.325 2.042c.096.605-.541 1.064-1.093.786l-1.856-.937a.11.11 0 0 0-.098 0l-1.857.937c-.551.278-1.188-.18-1.092-.786l.325-2.042a.106.106 0 0 0-.03-.092L59.39 5.637a.748.748 0 0 1 .417-1.271l2.058-.325a.108.108 0 0 0 .08-.057l.947-1.84Z" clip-rule="evenodd"/><g clip-path="url(#b)"><path fill="#F1BC2E" fill-rule="evenodd" d="M75.689 2.144a.76.76 0 0 1 1.35 0l.947 1.84c.015.03.045.052.079.057l2.058.325c.61.096.854.837.417 1.27L79.067 7.1a.106.106 0 0 0-.03.092l.324 2.042c.097.605-.54 1.064-1.092.786l-1.856-.937a.11.11 0 0 0-.099 0l-1.856.937c-.551.278-1.188-.18-1.092-.786l.325-2.042a.106.106 0 0 0-.03-.092l-1.474-1.463a.748.748 0 0 1 .417-1.271l2.058-.325a.108.108 0 0 0 .08-.057l.947-1.84Z" clip-rule="evenodd"/></g><path fill="#F1BC2E" fill-rule="evenodd" d="M88.493 2.144a.761.761 0 0 1 1.35 0l.947 1.84c.016.03.045.052.08.057l2.058.325c.61.096.854.837.417 1.27L91.872 7.1a.106.106 0 0 0-.03.092l.324 2.042c.096.605-.54 1.064-1.092.786l-1.857-.937a.109.109 0 0 0-.098 0l-1.856.937c-.552.278-1.189-.18-1.093-.786l.325-2.042a.106.106 0 0 0-.03-.092l-1.474-1.463a.748.748 0 0 1 .418-1.271l2.058-.325a.108.108 0 0 0 .08-.057l.946-1.84Z" clip-rule="evenodd"/><path fill="#fff" d="m20.831 25.855.47-1.64h-1.2v-1.15h1.53l.55-1.88h-1.2v-1.15h1.52l.47-1.63h1.33l-.47 1.63h1.65l.46-1.63h1.33l-.47 1.63h1.2v1.15h-1.53l-.54 1.88h1.2v1.15h-1.53l-.47 1.64h-1.32l.46-1.64h-1.64l-.47 1.64h-1.33Zm2.13-2.79h1.65l.53-1.88h-1.64l-.54 1.88Zm7.4 2.79v-6.29h-1.44v-1.16h2.8v7.45h-1.36Zm4.801 0v-7.45h2.77c.507 0 .954.094 1.34.28.394.18.7.447.92.8.22.347.33.77.33 1.27 0 .514-.123.95-.37 1.31-.24.36-.566.627-.98.8l1.71 2.99h-1.54l-1.83-3.27.88.52h-1.87v2.75h-1.36Zm1.36-3.95h1.43c.247 0 .46-.046.64-.14.18-.1.32-.236.42-.41.1-.173.15-.373.15-.6 0-.233-.05-.433-.15-.6-.1-.173-.24-.306-.42-.4-.18-.1-.393-.15-.64-.15h-1.43v2.3Zm4.642 3.95 2.57-7.45h1.76l2.57 7.45h-1.48l-.53-1.6h-2.88l-.54 1.6h-1.47Zm2.4-2.8h2.1l-1.24-3.71h.38l-1.24 3.71Zm5.329 2.8v-7.45h1.06l4.1 5.52-.55.11v-5.63h1.36v7.45h-1.07l-4.04-5.56.5-.11v5.67h-1.36Zm7.412 0v-7.45h1.36v3.88l-.37-.13 3.17-3.75h1.71l-2.97 3.52.08-.96 2.98 4.89h-1.6l-2-3.28-1 1.19v2.09h-1.36Zm6.787 0v-7.45h4.95v1.2h-3.59v1.91h3.39v1.2h-3.39v1.94h3.59v1.2h-4.95Zm5.947 0v-7.45h2.43c.787 0 1.47.16 2.05.48.587.314 1.04.75 1.36 1.31.32.554.48 1.197.48 1.93 0 .727-.16 1.374-.48 1.94-.32.56-.773 1-1.36 1.32-.58.314-1.263.47-2.05.47h-2.43Zm1.36-1.2h1.1c.507 0 .944-.103 1.31-.31.374-.213.663-.506.87-.88.207-.38.31-.826.31-1.34 0-.52-.103-.966-.31-1.34a2.185 2.185 0 0 0-.87-.87c-.367-.206-.803-.31-1.31-.31h-1.1v5.05Zm7.82 1.2v-7.45h1.06l4.1 5.52-.55.11v-5.63h1.36v7.45h-1.07l-4.04-5.56.5-.11v5.67h-1.36Zm10.072.12c-.473 0-.913-.086-1.32-.26a3.164 3.164 0 0 1-1.04-.72 2.924 2.924 0 0 1-.63-1.09l1.13-.49c.18.427.44.764.78 1.01.34.24.723.36 1.15.36.24 0 .447-.036.62-.11a.961.961 0 0 0 .41-.32c.1-.133.15-.293.15-.48 0-.22-.067-.4-.2-.54-.127-.146-.32-.26-.58-.34l-1.43-.46c-.58-.18-1.017-.45-1.31-.81a1.95 1.95 0 0 1-.44-1.27c0-.426.103-.803.31-1.13a2.13 2.13 0 0 1 .88-.76 2.91 2.91 0 0 1 1.3-.28c.447 0 .857.08 1.23.24.373.154.693.37.96.65.273.274.477.597.61.97l-1.12.5a1.805 1.805 0 0 0-.66-.86 1.726 1.726 0 0 0-1.02-.31c-.227 0-.427.04-.6.12a.94.94 0 0 0-.41.32.816.816 0 0 0-.14.48c0 .207.067.39.2.55.133.154.337.274.61.36l1.37.43c.593.194 1.037.46 1.33.8.3.34.45.76.45 1.26 0 .427-.11.804-.33 1.13-.22.327-.523.584-.91.77-.387.187-.837.28-1.35.28Zm3.815-.12v-7.45h4.97v1.2h-3.61v2.06h3.16v1.2h-3.16v2.99h-1.36Zm7.249 0-2-7.45h1.46l1.57 6.35h-.38l1.64-6.35h1.41l1.63 6.35h-.38l1.57-6.35h1.46l-2 7.45h-1.56l-1.65-6.18h.44l-1.65 6.18h-1.56Zm-51.673 12 2.57-7.45h1.76l2.57 7.45h-1.48l-.53-1.6h-2.88l-.54 1.6h-1.47Zm2.4-2.8h2.1l-1.24-3.71h.38l-1.24 3.71Zm5.33 2.8v-7.45h1.36v7.45h-1.36Zm3.96 0 2.57-7.45h1.76l2.57 7.45h-1.48l-.53-1.6h-2.88l-.54 1.6h-1.47Zm2.4-2.8h2.1l-1.24-3.71h.38l-1.24 3.71Zm5.329 2.8v-7.45h2.78c.506 0 .953.094 1.34.28.393.18.7.447.92.8.22.347.33.77.33 1.27 0 .494-.114.917-.34 1.27a2.17 2.17 0 0 1-.91.8c-.387.187-.834.28-1.34.28h-1.42v2.75H67.1Zm1.36-3.95h1.44c.246 0 .46-.046.64-.14.18-.1.32-.236.42-.41.1-.173.15-.373.15-.6 0-.233-.05-.433-.15-.6-.1-.173-.24-.306-.42-.4-.18-.1-.394-.15-.64-.15h-1.44v2.3Zm5.124 3.95v-7.45h2.78c.507 0 .953.094 1.34.28.393.18.7.447.92.8.22.347.33.77.33 1.27 0 .494-.113.917-.34 1.27a2.17 2.17 0 0 1-.91.8c-.387.187-.833.28-1.34.28h-1.42v2.75h-1.36Zm1.36-3.95h1.44c.247 0 .46-.046.64-.14.18-.1.32-.236.42-.41.1-.173.15-.373.15-.6 0-.233-.05-.433-.15-.6-.1-.173-.24-.306-.42-.4-.18-.1-.393-.15-.64-.15h-1.44v2.3Z"/><path fill="url(#c)" d="M19.615 40.195c2.394-.718 7.564-2.046 9.117-.89.891.916 0 1.904-.815 2.313-2.452 1.227-7.423-.856-8.302-1.423Z"/><path fill="url(#d)" d="M97.253 39.304c1.553-1.155 6.723.173 9.116.89-.879.568-5.85 2.65-8.302 1.424-.815-.409-1.706-1.397-.814-2.314Z"/><path fill="url(#e)" d="M11.091 38.039c3.752-.894 3.938-4.078 10.2-1.47-2.774 4.43-8.684 2.83-10.2 1.47Z"/><path fill="url(#f)" d="M104.694 36.569c6.261-2.608 6.447.576 10.2 1.47-1.516 1.36-7.427 2.96-10.2-1.47Z"/><path fill="url(#g)" d="M25.09 33.057c2.7.43 4.953 2.289 5.22 3.538.536 1.899-.483 2.59-2.4 2.257-2.157-.358-1.75-3.639-2.82-5.795Z"/><path fill="url(#h)" d="M100.894 33.057c-1.07 2.156-.662 5.437-2.819 5.795-1.918.333-2.936-.358-2.401-2.257.268-1.25 2.52-3.109 5.22-3.538Z"/><path fill="url(#i)" d="M17.134 30.205c1.012 1.174 6.378 1.555 4.346 6.034-5.303-1.198-3.91-2.856-4.346-6.034Z"/><path fill="url(#j)" d="M108.85 30.205c-.435 3.178.957 4.836-4.345 6.034-2.032-4.48 3.333-4.86 4.345-6.034Z"/><path fill="url(#k)" d="M4.573 31.863c3.252.658 4.96-1.661 8.366 2.509-4.26 2.337-7.9-.954-8.366-2.51Z"/><path fill="url(#l)" d="M113.045 34.372c3.406-4.17 5.115-1.85 8.366-2.51-.465 1.556-4.105 4.847-8.366 2.51Z"/><path fill="url(#m)" d="M12.96 28.133c.18 1.238 4.012 3.422.283 6.058-3.382-2.775-1.522-3.524-.282-6.058Z"/><path fill="url(#n)" d="M113.024 28.133c1.239 2.535 3.099 3.284-.282 6.058-3.73-2.636.102-4.82.282-6.058Z"/><path fill="url(#o)" d="M1.877 26.65c2.723 1.092 4.739-.685 6.83 3.53-4.271 1.39-6.76-2.085-6.83-3.53Z"/><path fill="url(#p)" d="M124.108 26.65c-.07 1.445-2.56 4.92-6.83 3.53 2.09-4.215 4.106-2.438 6.83-3.53Z"/><path fill="url(#q)" d="M10.093 24.68c-.113 1.12 2.789 3.65-1.079 5.388-2.375-2.98-.57-3.348 1.079-5.388Z"/><path fill="url(#r)" d="M115.892 24.68c1.648 2.04 3.453 2.408 1.078 5.388-3.867-1.738-.965-4.268-1.078-5.388Z"/><path fill="url(#s)" d="M.769 21.916c1.952 1.117 3.756-.055 4.784 3.41-3.492.647-4.931-2.287-4.784-3.41Z"/><path fill="url(#t)" d="M125.216 21.916c.147 1.123-1.292 4.057-4.785 3.41 1.029-3.465 2.833-2.293 4.785-3.41Z"/><path fill="url(#u)" d="M7.39 21.216c-.243.854 1.646 3.098-1.583 4.055-1.42-2.54.025-2.643 1.582-4.055Z"/><path fill="url(#v)" d="M118.595 21.216c1.558 1.412 3.003 1.515 1.583 4.055-3.229-.957-1.34-3.201-1.583-4.055Z"/><path fill="url(#w)" d="M7.188 17.52c-.48.734.586 3.207-2.673 3.391-.546-2.643.816-2.427 2.673-3.39Z"/><path fill="url(#x)" d="M118.797 17.52c1.857.964 3.218.748 2.673 3.391-3.26-.184-2.194-2.657-2.673-3.39Z"/><path fill="url(#y)" d="M.884 16.738c1.462 1.448 3.474.759 3.381 4.17C.857 20.75.412 17.74.884 16.738Z"/><path fill="url(#z)" d="M125.101 16.738c.472 1.003.027 4.013-3.382 4.17-.093-3.411 1.92-2.722 3.382-4.17Z"/><path fill="url(#A)" d="M7.879 13.84c-.677.612-.359 3.231-3.572 2.733.235-2.676 1.493-2.184 3.572-2.733Z"/><path fill="url(#B)" d="M118.106 13.84c2.079.55 3.336.057 3.571 2.733-3.213.498-2.894-2.12-3.571-2.733Z"/><path fill="url(#C)" d="M1.993 11.773c.998 1.708 3.149 1.457 2.073 4.745-3.26-.86-2.82-3.872-2.073-4.745Z"/><path fill="url(#D)" d="M123.992 11.773c.747.873 1.186 3.885-2.073 4.745-1.076-3.288 1.074-3.037 2.073-4.745Z"/><path fill="url(#E)" d="M9.439 10.173c-.706.525-.691 3.022-3.67 2.3.514-2.508 1.647-1.945 3.67-2.3Z"/><path fill="url(#F)" d="M116.546 10.173c2.022.355 3.156-.208 3.67 2.3-2.979.722-2.964-1.775-3.67-2.3Z"/><path fill="url(#G)" d="M4.108 7.76c.757 1.69 2.814 1.623 1.44 4.642-2.983-1.067-2.24-3.875-1.44-4.641Z"/><path fill="url(#H)" d="M121.877 7.76c.8.767 1.543 3.575-1.44 4.642-1.374-3.02.683-2.951 1.44-4.641Z"/><path fill="url(#I)" d="M7.624 8.215c.957-2.275 1.91-1.593 3.868-1.65-.76.395-1.22 2.731-3.868 1.65Z"/><path fill="url(#J)" d="M114.493 6.566c1.958.056 2.911-.626 3.868 1.649-2.648 1.081-3.108-1.255-3.868-1.65Z"/><path fill="url(#K)" d="M6.966 3.582c.387 1.684 2.323 1.9.464 4.536-2.586-1.405-1.358-3.929-.464-4.536Z"/><path fill="url(#L)" d="M119.018 3.582c.894.607 2.123 3.13-.464 4.536-1.858-2.635.078-2.853.464-4.536Z"/><path fill="url(#M)" d="M10.598 4.56c1.1-1.72 1.763-1.074 3.339-.912-.666.235-1.378 2.057-3.339.912Z"/><path fill="url(#N)" d="M112.048 3.648c1.576-.162 2.239-.808 3.338.912-1.961 1.145-2.672-.677-3.338-.912Z"/><path fill="url(#O)" d="M10.752.782c.062 1.388 1.58 1.766-.295 3.68-1.864-1.397-.51-3.288.295-3.68Z"/><path fill="url(#P)" d="M115.233.782c.805.392 2.158 2.283.294 3.68-1.874-1.914-.356-2.292-.294-3.68Z"/><path fill="url(#Q)" d="M12.396 2.276c.043-2.11 2.619-2.465 3.493-2.2-1.206.942-.56 2.165-3.493 2.2Z"/><path fill="url(#R)" d="M110.096.076c.874-.265 3.45.09 3.493 2.2-2.934-.035-2.288-1.258-3.493-2.2Z"/><defs><linearGradient id="c" x1="72.632" x2="72.775" y1="-13.649" y2="41.998" gradientUnits="userSpaceOnUse"><stop stop-color="#FF7A00"/><stop offset=".745" stop-color="#E7AC18"/><stop offset="1" stop-color="#F8C73D"/></linearGradient><linearGradient id="d" x1="72.632" x2="72.775" y1="-13.649" y2="41.998" gradientUnits="userSpaceOnUse"><stop stop-color="#FF7A00"/><stop offset=".745" stop-color="#E7AC18"/><stop offset="1" stop-color="#F8C73D"/></linearGradient><linearGradient id="e" x1="72.632" x2="72.775" y1="-13.649" y2="41.998" gradientUnits="userSpaceOnUse"><stop stop-color="#FF7A00"/><stop offset=".745" stop-color="#E7AC18"/><stop offset="1" stop-color="#F8C73D"/></linearGradient><linearGradient id="f" x1="72.632" x2="72.775" y1="-13.649" y2="41.998" gradientUnits="userSpaceOnUse"><stop stop-color="#FF7A00"/><stop offset=".745" stop-color="#E7AC18"/><stop offset="1" stop-color="#F8C73D"/></linearGradient><linearGradient id="g" x1="72.632" x2="72.775" y1="-13.649" y2="41.998" gradientUnits="userSpaceOnUse"><stop stop-color="#FF7A00"/><stop offset=".745" stop-color="#E7AC18"/><stop offset="1" stop-color="#F8C73D"/></linearGradient><linearGradient id="h" x1="72.632" x2="72.775" y1="-13.649" y2="41.998" gradientUnits="userSpaceOnUse"><stop stop-color="#FF7A00"/><stop offset=".745" stop-color="#E7AC18"/><stop offset="1" stop-color="#F8C73D"/></linearGradient><linearGradient id="i" x1="72.632" x2="72.775" y1="-13.649" y2="41.998" gradientUnits="userSpaceOnUse"><stop stop-color="#FF7A00"/><stop offset=".745" stop-color="#E7AC18"/><stop offset="1" stop-color="#F8C73D"/></linearGradient><linearGradient id="j" x1="72.632" x2="72.775" y1="-13.649" y2="41.998" gradientUnits="userSpaceOnUse"><stop stop-color="#FF7A00"/><stop offset=".745" stop-color="#E7AC18"/><stop offset="1" stop-color="#F8C73D"/></linearGradient><linearGradient id="k" x1="72.632" x2="72.775" y1="-13.649" y2="41.998" gradientUnits="userSpaceOnUse"><stop stop-color="#FF7A00"/><stop offset=".745" stop-color="#E7AC18"/><stop offset="1" stop-color="#F8C73D"/></linearGradient><linearGradient id="l" x1="72.632" x2="72.775" y1="-13.649" y2="41.998" gradientUnits="userSpaceOnUse"><stop stop-color="#FF7A00"/><stop offset=".745" stop-color="#E7AC18"/><stop offset="1" stop-color="#F8C73D"/></linearGradient><linearGradient id="m" x1="72.632" x2="72.775" y1="-13.649" y2="41.998" gradientUnits="userSpaceOnUse"><stop stop-color="#FF7A00"/><stop offset=".745" stop-color="#E7AC18"/><stop offset="1" stop-color="#F8C73D"/></linearGradient><linearGradient id="n" x1="72.632" x2="72.775" y1="-13.649" y2="41.998" gradientUnits="userSpaceOnUse"><stop stop-color="#FF7A00"/><stop offset=".745" stop-color="#E7AC18"/><stop offset="1" stop-color="#F8C73D"/></linearGradient><linearGradient id="o" x1="72.632" x2="72.775" y1="-13.649" y2="41.998" gradientUnits="userSpaceOnUse"><stop stop-color="#FF7A00"/><stop offset=".745" stop-color="#E7AC18"/><stop offset="1" stop-color="#F8C73D"/></linearGradient><linearGradient id="p" x1="72.632" x2="72.775" y1="-13.649" y2="41.998" gradientUnits="userSpaceOnUse"><stop stop-color="#FF7A00"/><stop offset=".745" stop-color="#E7AC18"/><stop offset="1" stop-color="#F8C73D"/></linearGradient><linearGradient id="q" x1="72.632" x2="72.775" y1="-13.649" y2="41.998" gradientUnits="userSpaceOnUse"><stop stop-color="#FF7A00"/><stop offset=".745" stop-color="#E7AC18"/><stop offset="1" stop-color="#F8C73D"/></linearGradient><linearGradient id="r" x1="72.632" x2="72.775" y1="-13.649" y2="41.998" gradientUnits="userSpaceOnUse"><stop stop-color="#FF7A00"/><stop offset=".745" stop-color="#E7AC18"/><stop offset="1" stop-color="#F8C73D"/></linearGradient><linearGradient id="s" x1="72.632" x2="72.775" y1="-13.649" y2="41.998" gradientUnits="userSpaceOnUse"><stop stop-color="#FF7A00"/><stop offset=".745" stop-color="#E7AC18"/><stop offset="1" stop-color="#F8C73D"/></linearGradient><linearGradient id="t" x1="72.632" x2="72.775" y1="-13.649" y2="41.998" gradientUnits="userSpaceOnUse"><stop stop-color="#FF7A00"/><stop offset=".745" stop-color="#E7AC18"/><stop offset="1" stop-color="#F8C73D"/></linearGradient><linearGradient id="u" x1="72.632" x2="72.775" y1="-13.649" y2="41.998" gradientUnits="userSpaceOnUse"><stop stop-color="#FF7A00"/><stop offset=".745" stop-color="#E7AC18"/><stop offset="1" stop-color="#F8C73D"/></linearGradient><linearGradient id="v" x1="72.632" x2="72.775" y1="-13.649" y2="41.998" gradientUnits="userSpaceOnUse"><stop stop-color="#FF7A00"/><stop offset=".745" stop-color="#E7AC18"/><stop offset="1" stop-color="#F8C73D"/></linearGradient><linearGradient id="w" x1="72.632" x2="72.775" y1="-13.649" y2="41.998" gradientUnits="userSpaceOnUse"><stop stop-color="#FF7A00"/><stop offset=".745" stop-color="#E7AC18"/><stop offset="1" stop-color="#F8C73D"/></linearGradient><linearGradient id="x" x1="72.632" x2="72.775" y1="-13.649" y2="41.998" gradientUnits="userSpaceOnUse"><stop stop-color="#FF7A00"/><stop offset=".745" stop-color="#E7AC18"/><stop offset="1" stop-color="#F8C73D"/></linearGradient><linearGradient id="y" x1="72.632" x2="72.775" y1="-13.649" y2="41.998" gradientUnits="userSpaceOnUse"><stop stop-color="#FF7A00"/><stop offset=".745" stop-color="#E7AC18"/><stop offset="1" stop-color="#F8C73D"/></linearGradient><linearGradient id="z" x1="72.632" x2="72.775" y1="-13.649" y2="41.998" gradientUnits="userSpaceOnUse"><stop stop-color="#FF7A00"/><stop offset=".745" stop-color="#E7AC18"/><stop offset="1" stop-color="#F8C73D"/></linearGradient><linearGradient id="A" x1="72.632" x2="72.775" y1="-13.649" y2="41.998" gradientUnits="userSpaceOnUse"><stop stop-color="#FF7A00"/><stop offset=".745" stop-color="#E7AC18"/><stop offset="1" stop-color="#F8C73D"/></linearGradient><linearGradient id="B" x1="72.632" x2="72.775" y1="-13.649" y2="41.998" gradientUnits="userSpaceOnUse"><stop stop-color="#FF7A00"/><stop offset=".745" stop-color="#E7AC18"/><stop offset="1" stop-color="#F8C73D"/></linearGradient><linearGradient id="C" x1="72.632" x2="72.775" y1="-13.649" y2="41.998" gradientUnits="userSpaceOnUse"><stop stop-color="#FF7A00"/><stop offset=".745" stop-color="#E7AC18"/><stop offset="1" stop-color="#F8C73D"/></linearGradient><linearGradient id="D" x1="72.632" x2="72.775" y1="-13.649" y2="41.998" gradientUnits="userSpaceOnUse"><stop stop-color="#FF7A00"/><stop offset=".745" stop-color="#E7AC18"/><stop offset="1" stop-color="#F8C73D"/></linearGradient><linearGradient id="E" x1="72.632" x2="72.775" y1="-13.649" y2="41.998" gradientUnits="userSpaceOnUse"><stop stop-color="#FF7A00"/><stop offset=".745" stop-color="#E7AC18"/><stop offset="1" stop-color="#F8C73D"/></linearGradient><linearGradient id="F" x1="72.632" x2="72.775" y1="-13.649" y2="41.998" gradientUnits="userSpaceOnUse"><stop stop-color="#FF7A00"/><stop offset=".745" stop-color="#E7AC18"/><stop offset="1" stop-color="#F8C73D"/></linearGradient><linearGradient id="G" x1="72.632" x2="72.775" y1="-13.649" y2="41.998" gradientUnits="userSpaceOnUse"><stop stop-color="#FF7A00"/><stop offset=".745" stop-color="#E7AC18"/><stop offset="1" stop-color="#F8C73D"/></linearGradient><linearGradient id="H" x1="72.632" x2="72.775" y1="-13.649" y2="41.998" gradientUnits="userSpaceOnUse"><stop stop-color="#FF7A00"/><stop offset=".745" stop-color="#E7AC18"/><stop offset="1" stop-color="#F8C73D"/></linearGradient><linearGradient id="I" x1="72.632" x2="72.775" y1="-13.649" y2="41.998" gradientUnits="userSpaceOnUse"><stop stop-color="#FF7A00"/><stop offset=".745" stop-color="#E7AC18"/><stop offset="1" stop-color="#F8C73D"/></linearGradient><linearGradient id="J" x1="72.632" x2="72.775" y1="-13.649" y2="41.998" gradientUnits="userSpaceOnUse"><stop stop-color="#FF7A00"/><stop offset=".745" stop-color="#E7AC18"/><stop offset="1" stop-color="#F8C73D"/></linearGradient><linearGradient id="K" x1="72.632" x2="72.775" y1="-13.649" y2="41.998" gradientUnits="userSpaceOnUse"><stop stop-color="#FF7A00"/><stop offset=".745" stop-color="#E7AC18"/><stop offset="1" stop-color="#F8C73D"/></linearGradient><linearGradient id="L" x1="72.632" x2="72.775" y1="-13.649" y2="41.998" gradientUnits="userSpaceOnUse"><stop stop-color="#FF7A00"/><stop offset=".745" stop-color="#E7AC18"/><stop offset="1" stop-color="#F8C73D"/></linearGradient><linearGradient id="M" x1="72.632" x2="72.775" y1="-13.649" y2="41.998" gradientUnits="userSpaceOnUse"><stop stop-color="#FF7A00"/><stop offset=".745" stop-color="#E7AC18"/><stop offset="1" stop-color="#F8C73D"/></linearGradient><linearGradient id="N" x1="72.632" x2="72.775" y1="-13.649" y2="41.998" gradientUnits="userSpaceOnUse"><stop stop-color="#FF7A00"/><stop offset=".745" stop-color="#E7AC18"/><stop offset="1" stop-color="#F8C73D"/></linearGradient><linearGradient id="O" x1="72.632" x2="72.775" y1="-13.649" y2="41.998" gradientUnits="userSpaceOnUse"><stop stop-color="#FF7A00"/><stop offset=".745" stop-color="#E7AC18"/><stop offset="1" stop-color="#F8C73D"/></linearGradient><linearGradient id="P" x1="72.632" x2="72.775" y1="-13.649" y2="41.998" gradientUnits="userSpaceOnUse"><stop stop-color="#FF7A00"/><stop offset=".745" stop-color="#E7AC18"/><stop offset="1" stop-color="#F8C73D"/></linearGradient><linearGradient id="Q" x1="72.632" x2="72.775" y1="-13.649" y2="41.998" gradientUnits="userSpaceOnUse"><stop stop-color="#FF7A00"/><stop offset=".745" stop-color="#E7AC18"/><stop offset="1" stop-color="#F8C73D"/></linearGradient><linearGradient id="R" x1="72.632" x2="72.775" y1="-13.649" y2="41.998" gradientUnits="userSpaceOnUse"><stop stop-color="#FF7A00"/><stop offset=".745" stop-color="#E7AC18"/><stop offset="1" stop-color="#F8C73D"/></linearGradient><clipPath id="a"><path fill="#fff" d="M45.512.875h10.3v10.3h-10.3z"/></clipPath><clipPath id="b"><path fill="#fff" d="M71.11.875h10.3v10.3h-10.3z"/></clipPath></defs></svg>