<svg xmlns="http://www.w3.org/2000/svg" width="114" height="45" fill="none"><g clip-path="url(#a)"><g clip-path="url(#b)"><g clip-path="url(#c)"><g clip-path="url(#d)"><path fill="url(#e)" fill-rule="evenodd" d="M8.377 10.189c.11-.315.22-.626.26-.763-.094-.118-3.57 2.264-4.6 3.141-2.389 2.034-3.814 4.6-3.949 7.836-.17 4.102 1.812 7.013 4.869 9.443a504.222 504.222 0 0 1 6.21 5.045c1.02.837 2.041 1.675 3.065 2.509a.912.912 0 0 0 .168.103c.024 0 .09-.065.117-.093l.011-.01a112.536 112.536 0 0 1 9.204-7.488c6.11-4.45 5.889-10.994 3.643-15.804-1.744-3.737-4.825-6.184-8.35-8.144l-.475-.263c-.92-.508-1.841-1.017-2.703-1.61-.59-.408-.992-.905-1.181-1.486-.168-.519-.227-1.77.102-2.51-2.152 1.264-3.232 3.608-2.752 6.281.176.978.473 1.934.771 2.89.183.587.365 1.173.52 1.765.313 1.2.12 2.292-.977 3.058-.909.634-2.487.621-3.378-.027-1.096-.797-1.19-1.882-.846-3.08.04-.142.156-.47.27-.793Zm4.444 21.17c.56.406 1.119.811 1.672 1.217.56-.41 1.125-.817 1.691-1.226 1.367-.985 2.743-1.977 4.069-3.03 1.09-.868 2.168-1.83 2.992-2.94 1.059-1.425 1.136-3.113.276-4.7-.85-1.569-2.312-2.383-4.033-2.13-1.39.204-2.785.746-4.029 1.415-.789.424-1.224.447-1.95-.035-.814-.538-1.752-.948-2.692-1.225-2.057-.609-4.155.117-5.202 1.67-1.056 1.567-.972 3.804.396 5.438.814.972 1.818 1.808 2.826 2.59 1.31 1.016 2.652 1.99 3.984 2.955Z" clip-rule="evenodd"/><mask id="f" width="9" height="4" x="10" y="24" maskUnits="userSpaceOnUse" style="mask-type:luminance"><path fill="#fff" fill-rule="evenodd" d="M10.059 24.406a4.567 4.567 0 0 0 8.862 0h-1.799a2.854 2.854 0 0 1-5.265 0H10.06Z" clip-rule="evenodd"/></mask><g mask="url(#f)"><path fill="url(#g)" d="M10.063 24.407v-1.37h-1.75l.42 1.699 1.33-.33Zm8.862 0 1.33.329.42-1.699h-1.75v1.37Zm-1.799 0v-1.37h-.911l-.352.841 1.263.529Zm-5.265 0 1.264-.529-.352-.84h-.912v1.369Zm2.633 2.094a3.197 3.197 0 0 1-3.102-2.423l-2.659.658a5.936 5.936 0 0 0 5.76 4.505V26.5Zm3.102-2.423a3.197 3.197 0 0 1-3.102 2.423v2.74a5.936 5.936 0 0 0 5.76-4.505l-2.659-.658Zm1.329-1.04h-1.799v2.738h1.799v-2.739Zm-4.431 4.49a4.223 4.223 0 0 0 3.896-2.592l-2.527-1.058a1.484 1.484 0 0 1-1.37.911v2.74Zm-3.896-2.592a4.223 4.223 0 0 0 3.896 2.593v-2.74a1.484 1.484 0 0 1-1.37-.91l-2.526 1.057Zm1.263-1.899h-1.799v2.74h1.8v-2.74Z"/></g><path fill="url(#h)" d="M38.729 35.418c-.978 0-1.84-.189-2.586-.566a4.056 4.056 0 0 1-1.71-1.62c-.403-.712-.605-1.544-.605-2.496s.202-1.78.605-2.482a4.034 4.034 0 0 1 1.71-1.634c.746-.386 1.608-.579 2.586-.579.643 0 1.217.065 1.723.193.506.129.973.33 1.402.605v2.16a3.657 3.657 0 0 0-1.286-.655c-.472-.138-1.016-.206-1.634-.206-.883 0-1.564.231-2.045.694-.48.455-.72 1.09-.72 1.904 0 .815.24 1.454.72 1.917.49.463 1.17.694 2.045.694.618 0 1.17-.073 1.66-.218a4.276 4.276 0 0 0 1.363-.695v2.148c-.815.557-1.89.836-3.228.836Zm7.347 0c-.763 0-1.432-.137-2.006-.412-.575-.283-1.02-.669-1.338-1.157-.309-.498-.463-1.068-.463-1.71 0-.644.154-1.21.463-1.699a3.157 3.157 0 0 1 1.338-1.157c.574-.283 1.243-.425 2.006-.425.763 0 1.432.142 2.007.425.574.274 1.016.66 1.325 1.157.317.489.475 1.055.475 1.698s-.158 1.213-.476 1.71c-.308.49-.75.875-1.324 1.158-.575.275-1.244.412-2.007.412Zm0-1.762c.455 0 .815-.133 1.08-.399.275-.274.412-.647.412-1.119 0-.471-.137-.84-.411-1.106-.266-.274-.626-.412-1.08-.412-.455 0-.82.137-1.094.412-.266.266-.399.634-.399 1.106 0 .472.133.845.399 1.12.274.265.639.398 1.093.398Zm4.703-4.605h2.096v.669c.257-.274.553-.485.888-.63.334-.155.69-.232 1.067-.232.463 0 .832.069 1.106.206.283.137.51.343.682.617.257-.257.57-.458.939-.604a3.021 3.021 0 0 1 1.119-.219c.815 0 1.393.21 1.736.63.343.412.515 1.008.515 1.788v3.949h-2.161v-3.627c0-.343-.064-.592-.193-.746-.129-.154-.343-.232-.643-.232-.386 0-.699.137-.939.412.009.146.013.369.013.669v3.524h-2.161v-3.717c0-.317-.056-.545-.167-.682-.112-.137-.309-.206-.592-.206-.437 0-.815.245-1.132.733v3.872H50.78v-6.174Zm11.241 0h2.187v.618c.575-.54 1.303-.81 2.187-.81.643 0 1.213.136 1.71.41a2.81 2.81 0 0 1 1.158 1.146c.274.488.412 1.059.412 1.71 0 .643-.138 1.218-.412 1.724-.275.497-.66.883-1.158 1.157-.489.275-1.059.412-1.71.412-.412 0-.806-.064-1.184-.193a2.66 2.66 0 0 1-.926-.502v3.319H62.02v-8.99Zm3.782 4.605c.463 0 .836-.137 1.119-.412.283-.274.424-.647.424-1.119 0-.471-.141-.84-.424-1.106-.283-.274-.656-.411-1.12-.411-.342 0-.65.09-.925.27a1.449 1.449 0 0 0-.592.707v1.093c.12.3.317.54.592.72.274.172.583.258.926.258Zm6.774 1.762c-.772 0-1.398-.184-1.878-.553-.472-.377-.708-.9-.708-1.57 0-.694.228-1.226.682-1.594.463-.378 1.123-.566 1.98-.566.335 0 .67.038 1.004.116.334.068.622.162.862.283v-.13c0-.66-.54-.99-1.62-.99-.755 0-1.446.146-2.072.438v-1.556c.275-.13.635-.232 1.08-.31a7.345 7.345 0 0 1 1.39-.128c1.149 0 2.015.232 2.598.695.592.454.888 1.093.888 1.916v3.756h-2.123v-.527a2.459 2.459 0 0 1-.874.527 3.507 3.507 0 0 1-1.21.193Zm.669-1.39c.265 0 .514-.05.745-.154.232-.111.408-.253.528-.424v-.54a2.202 2.202 0 0 0-1.26-.373c-.3 0-.532.064-.695.193-.163.128-.245.317-.245.566 0 .231.078.411.232.54.163.129.394.193.695.193Zm4.627-4.977h2.187v.682a2.51 2.51 0 0 1 .964-.656 3.254 3.254 0 0 1 1.184-.219c.866 0 1.505.227 1.916.682.42.446.63 1.055.63 1.826v3.859H82.49v-3.563c0-.694-.318-1.042-.952-1.042-.292 0-.558.069-.798.206-.24.129-.441.33-.604.605v3.794h-2.264v-6.174Zm9.185-.823c-.343 0-.63-.112-.862-.334a1.128 1.128 0 0 1-.347-.85c0-.334.116-.612.347-.835a1.17 1.17 0 0 1 .862-.348c.335 0 .617.116.849.348.24.223.36.501.36.836 0 .334-.12.617-.36.849a1.178 1.178 0 0 1-.849.334Zm-1.132.823h2.264v6.174h-2.264v-6.174Zm7.053 6.367c-.763 0-1.432-.137-2.007-.412-.574-.283-1.02-.669-1.337-1.157-.309-.498-.463-1.068-.463-1.71 0-.644.154-1.21.463-1.699a3.157 3.157 0 0 1 1.337-1.157c.575-.283 1.244-.425 2.007-.425.763 0 1.432.142 2.006.425.575.274 1.017.66 1.325 1.157.317.489.476 1.055.476 1.698s-.159 1.213-.476 1.71c-.308.49-.75.875-1.325 1.158-.574.275-1.243.412-2.006.412Zm0-1.762c.454 0 .815-.133 1.08-.399.275-.274.412-.647.412-1.119 0-.471-.137-.84-.412-1.106-.266-.274-.626-.412-1.08-.412-.454 0-.819.137-1.093.412-.266.266-.4.634-.4 1.106 0 .472.134.845.4 1.12.274.265.638.398 1.093.398Zm4.702-4.605h2.187v.682c.266-.292.587-.51.965-.656a3.25 3.25 0 0 1 1.183-.219c.866 0 1.505.227 1.916.682.421.446.631 1.055.631 1.826v3.859h-2.264v-3.563c0-.694-.317-1.042-.952-1.042-.291 0-.557.069-.797.206-.24.129-.442.33-.605.605v3.794H97.68v-6.174Z"/><path fill="#fff" d="M34.102 13.398h3.228c.986 0 1.848.18 2.585.54.738.36 1.304.88 1.698 1.557.403.669.605 1.453.605 2.354 0 1.492-.438 2.624-1.312 3.395-.875.764-2.088 1.145-3.64 1.145h-3.164V13.4Zm3.357 7.075c.78 0 1.376-.236 1.787-.708.42-.471.63-1.11.63-1.916 0-.738-.21-1.342-.63-1.814-.411-.48-.981-.72-1.71-.72h-1.158v5.158h1.08Zm5.661-4.258h2.187v.772c.24-.274.579-.484 1.016-.63a4.344 4.344 0 0 1 1.453-.232v1.737c-.566 0-1.067.081-1.505.244-.428.163-.724.407-.887.733v3.55H43.12v-6.174Zm8.928 6.367c-1.21 0-2.16-.283-2.855-.849-.686-.566-1.03-1.367-1.03-2.405 0-1.02.305-1.826.914-2.418.617-.592 1.505-.888 2.662-.888.738 0 1.368.142 1.891.425.532.274.93.656 1.196 1.145.275.48.412 1.024.412 1.633v.836h-4.926c.085.343.3.592.643.746.343.154.81.232 1.402.232.403 0 .814-.035 1.234-.103a5.445 5.445 0 0 0 1.107-.283v1.492a5.59 5.59 0 0 1-1.197.308 8.105 8.105 0 0 1-1.453.129Zm1.055-3.936c-.035-.334-.172-.596-.412-.784-.24-.189-.57-.283-.99-.283-.412 0-.738.098-.978.296-.24.188-.377.445-.411.771h2.79Zm5.358 3.936c-.772 0-1.398-.184-1.878-.553-.471-.377-.707-.9-.707-1.57 0-.694.227-1.225.682-1.594.463-.377 1.123-.566 1.98-.566.335 0 .67.038 1.004.116.334.068.621.163.861.283v-.129c0-.66-.54-.99-1.62-.99-.755 0-1.445.145-2.071.437V16.46c.274-.129.634-.232 1.08-.31a7.347 7.347 0 0 1 1.39-.128c1.148 0 2.014.232 2.598.695.591.454.887 1.093.887 1.916v3.756h-2.122v-.527a2.458 2.458 0 0 1-.875.527 3.508 3.508 0 0 1-1.209.193Zm.669-1.39c.266 0 .514-.05.746-.153.232-.112.407-.253.527-.425v-.54a2.202 2.202 0 0 0-1.26-.373c-.3 0-.532.064-.695.193-.163.129-.244.317-.244.566 0 .231.077.411.231.54.163.129.395.193.695.193Zm4.627-4.977h2.097v.67a2.67 2.67 0 0 1 .888-.631c.334-.155.69-.232 1.067-.232.463 0 .832.069 1.106.206.283.137.51.343.682.617.257-.257.57-.458.939-.604a3.02 3.02 0 0 1 1.119-.219c.814 0 1.393.21 1.736.63.343.412.515 1.008.515 1.788v3.95h-2.161v-3.628c0-.343-.064-.592-.193-.746-.129-.154-.343-.232-.643-.232-.386 0-.699.138-.94.412.01.146.014.369.014.669v3.524h-2.161v-3.717c0-.317-.056-.545-.167-.682-.112-.137-.309-.206-.592-.206-.437 0-.814.245-1.132.734v3.871h-2.173v-6.174Z"/></g></g></g></g><defs><clipPath id="a"><path fill="#fff" d="M0 0h105.148v38.236H0z"/></clipPath><clipPath id="b"><path fill="#fff" d="M0 0h105.148v38.236H0z"/></clipPath><clipPath id="c"><path fill="#fff" d="M0 0h105.148v38.236H0z"/></clipPath><clipPath id="d"><path fill="#fff" d="M0 .096h105.148v38.05H0z"/></clipPath><linearGradient id="e" x1="-2.673" x2="28.86" y1="10.995" y2="34.116" gradientUnits="userSpaceOnUse"><stop stop-color="#E3439F"/><stop offset=".48" stop-color="#F54D71"/><stop offset="1" stop-color="#FF7A00"/></linearGradient><linearGradient id="g" x1="10.082" x2="18.906" y1="25.82" y2="25.646" gradientUnits="userSpaceOnUse"><stop stop-color="#F85461"/><stop offset="1" stop-color="#FC6638"/></linearGradient><linearGradient id="h" x1="26.022" x2="112.363" y1="32.674" y2="33.334" gradientUnits="userSpaceOnUse"><stop stop-color="#FA633C"/><stop offset="1" stop-color="#FF3A81"/></linearGradient></defs></svg>